<svg xmlns="http://www.w3.org/2000/svg" aria-label="ROFO AGRO — Consultora de agronegocios" viewBox="402 622 1211.2 744.5"><path fill="#7ca85c" d="M1237 1021c100.8 0 100.8 0 121 19 12.9 14.7 14.9 30.3 14 49q-.5 4.7-2 9l-.8 2.4a53 53 0 0 1-28.2 30.6c-2.9.7-2.9.7-5 1q7 11.1 14.7 21.7l12.8 17.9 1.7 2.5q5.2 7.3 9.8 14.9c-22.8 1.9-22.8 1.9-29.2-2a42 42 0 0 1-4.7-7.9c-2.2-4.2-5.2-8-7.9-11.8l-3.6-5.1-7.2-10.2-1.7-2.4-3.1-4.4c-3.6-5-3.6-5-3.6-7.2h-53v51h-24z"/><path fill="#5d7b4c" d="M426 1021c100.9 0 100.9 0 121 19a56 56 0 0 1 14.3 39v2.5a55 55 0 0 1-14.5 37.9c-5.4 5.1-13.8 12.6-21.8 12.6q7 11.1 14.7 21.7l12.8 17.9 1.7 2.5q5.2 7.3 9.8 14.9c-22.8 1.9-22.8 1.9-29.2-2a42 42 0 0 1-4.7-7.9c-2.2-4.2-5.2-8-7.9-11.8l-3.6-5.1-7.2-10.2-1.7-2.4-3.1-4.4c-3.6-5-3.6-5-3.6-7.2h-53v51h-24z"/><path fill="#72a856" d="M1226 777c2.4.3 3.7.7 5.4 2.4q3.4 5 5.7 10.6 2.7 5.3 6.3 10.3c1.6 2.7 1.6 2.7 2.6 5.9 1 2.9 1.8 3.7 4 5.8q2.6 4.2 5.1 8.8l1.3 2.3c2 3.6 3.7 6.9 4.7 10.8.9 3.2 1.6 3.9 3.9 6.1a37 37 0 0 1 2 5.9c1.2 4.1 2.8 7.4 5 11.1a72 72 0 0 1 0 47l-3.8 7q-1.6 2.8-2.3 5.9c-1.8 5.3-6.2 8.3-10.3 11.8a32 32 0 0 0-5.3 5.7c-2.9 3.2-5.3 4.1-9.3 5.6l-4.1 1.9-4.9 2.1-2.6 1.1a60 60 0 0 1-22.6 3.3h-3c-9-.2-17.2-1.1-25.2-5.3l-3-1.6a22 22 0 0 1-5.6-4.5 55 55 0 0 0-8.6-6.6c-4.5-2.6-6.8-6-9.4-10.4-2.2-3.4-2.2-3.4-6-5l-1-5h-2l-.6-2.5-.8-3.3-.7-3.3c-.8-3.1-.8-3.1-2.9-5.9a83 83 0 0 1 10.1-51.2q1.7-3.7 2.7-7.8l.7-2.9.5-2.1h2l.6-3.7c1.2-4.7 3.7-6.3 7.4-9.3q1.8-3.9 3-8h3l.4-1.7A44 44 0 0 1 1180 789l3.7-4.2 1.9-2.2 1.4-1.6c3.9 1.3 5.3 3.8 7.6 7a18 18 0 0 0 6.4 7 33 33 0 0 1-6 16h-2v4h-2l-.2 3.9a34 34 0 0 1-3.7 11.8 56 56 0 0 0-5.1 18.3c2.5-2.2 3.6-4.1 4.7-7.2l.7-2.2.6-1.6h2l.3-2.1c.8-3.4 2.1-6.2 3.6-9.4l1.5-3.3q2.2-4.2 4.6-8.2l1.5-3.6c2.3-5.2 2.3-5.2 4.5-7.4h4a292 292 0 0 1 23 51l1.2 3.6c5.5 17.6 7.3 38.7-1.2 55.7a51 51 0 0 1-10 11.7l-2.7 2.8-2.3 2.2-2.2 2.8c-3.5 2.7-5.6 3.2-10 3A30 30 0 0 1 1192 926v-3h-2l-4-7.2-1.2-2.1-1-2-1.1-1.9c-.7-1.8-.7-1.8-.7-5.8h-2c-1.7-5.1-1.2-10.5-1.2-15.9l-.1-3.5c0-7.2.7-13.7 2.6-20.7q1.3-6.4.7-12.9a73 73 0 0 0-7.1 51.4l2.2 7c.9 2.6.9 2.6.9 5.6h2l2.5 4.4 1.4 2.4c1.1 2.2 1.1 2.2 1.1 4.2h2l2 8 4 1 1 4c7.1 2.1 14.4 3.7 21.6 1a50 50 0 0 0 16.4-16l1.7-2c1.5-2.3 2.1-4.2 2.8-6.7q2-6.8 4.5-13.3h2c.6-16.8 1.1-32.2-5.3-48q-1.5-4.7-2.6-9.3a65 65 0 0 0-8.2-17.4q-2.8-5-4.9-10.3l-2.2-3.8c-1.8-3.2-1.8-3.2-1.8-5.2l-3-1-.6-5.9-.4-3.3V795l2-2 .9-2.3c1.3-3.1 3-5.1 5.1-7.7l3-5z"/><path fill="#7ca85c" d="M903 1021h24l5.9 12.7 2.1 4.5q13.3 28.3 26 56.8 8.6 19.4 17.6 38.7l4.7 10.3 1.2 2.5 11.2 24.2 2 4.4 2.7 5.9 1.5 3.4c1.1 2.6 1.1 2.6 1.1 4.6h-25q-6.3-12.2-11.6-24.8l-2.4-5.7-1.6-3.6-1.4-3.3c-1-2.6-1-2.6-1-4.6h-90l-3 9-3.3 7.8-.9 2.2-2 4.3-2.9 6.7-1.8 4.2-.9 2c-2.1 4.7-2.1 4.7-3.2 5.8l-5.6.1h-7l-3.6-.1H827q8.7-20.5 18.1-40.7l16.8-37.2q9.5-21.4 19.4-42.7l2.3-4.8 1.1-2.4 11.9-26.1 1-2.2z"/><path fill="#7ca95d" d="M1557.5 1038.9a85 85 0 0 1 30.7 57.5 90 90 0 0 1-19.2 63.6l-1.4 1.9a87 87 0 0 1-52.3 28.5c-26.7 2.9-51.4-.8-73.3-17.4a121 121 0 0 1-11.9-10.8c-16.7-17.8-20.8-41.1-20.4-64.5a83 83 0 0 1 27.1-56.5 97 97 0 0 1 120.7-2.3M1454 1057l-2 1.7a59 59 0 0 0-17 30.3l-.5 1.8c-1 4.6-.7 9.3-.7 14v3.2a62 62 0 0 0 13.2 38l1.3 1.8a61 61 0 0 0 36.7 21.2q6.6.4 13 .3h3.5c16.3-.1 32-6.2 44.1-17.4a71 71 0 0 0 18.7-51.6 66 66 0 0 0-20.3-43.3 66 66 0 0 0-44.1-16.3h-2.5a64 64 0 0 0-43.4 16.3"/><path fill="#7ca95c" d="M1169.8 1035.1q5.4 4.2 10.2 8.9c-1.7 4.4-4.9 7.1-8.1 10.3l-1.7 1.7-4.2 4-1.4-1.1a80 80 0 0 0-61.9-16.6 64 64 0 0 0-39.4 23.5 68 68 0 0 0-11 53.4 65 65 0 0 0 14.6 29.4 63 63 0 0 0 28.1 17.4l3.1 1.2c5.7 1.6 11.7 1.2 17.6 1.2h3.6c13.8 0 22.9-3.4 35.7-9.4l1-55h23l.4 25.6.2 11.8.2 11.4.1 4.4c.3 11.3.3 11.3-2.6 15a31 31 0 0 1-6.3 3.8l-3.9 2.2-3.9 2-2.1 1a104 104 0 0 1-78.2 5.1 86 86 0 0 1-48.8-43.2 93 93 0 0 1-2.6-70.3 85 85 0 0 1 20.5-29.8l2-2a86 86 0 0 1 20-13l2.8-1.4a97 97 0 0 1 93 8.5"/><path fill="#72a755" d="M918 779c5.5 1.1 8.3 5.1 11.7 9.3 2 2.7 2 2.7 4.3 3.7l1 3 2 1 1.3 2.2q3 4.6 6.9 8.5 6.4 6.8 12.1 14.3c1.7 2.2 1.7 2.2 4.7 4q2.8 4.3 5 9h2l1 3 2.4 1.8c2.6 2.2 2.6 2.2 4 5.2 1.9 3.7 4.2 4.9 7.6 7v2h2l2 7h2v3h2v3h2c2.5 5.1 3.4 8.9 3.3 14.7v14.4l-.1 13.1-.1 13.5-.1 26.3c-5.5 2.8-12.4.6-18-1v-2l-3.7-.6a62 62 0 0 1-20.7-9.6c-2.4-1.9-2.4-1.9-4.9-2.6-3.6-1.6-6-4.1-8.8-6.9l-1.5-1.5c-3.6-3.6-8.4-8.5-8.4-13.8h-3a35 35 0 0 1-5-14h-2c-4.2-11.7-3.4-23.9-3.3-36.1v-7.1l.1-18.3.1-18.8zm165 1 .2 37.1.1 17.3.1 16.6v6.3c.2 14.5-.9 27.1-6.4 40.7-1.4 4.5-1.4 4.5-2.4 9.2-.9 2.6-2.7 3.9-4.6 5.8l-1 3h-2l-.8 1.8q-1.7 3.1-4.2 6l-1.6 1.8c-1.4 1.4-1.4 1.4-3.4 1.4l-.7 1.9c-1.6 2.7-3 3.2-5.9 4.5a44 44 0 0 0-9.5 5.7 51 51 0 0 1-33.9 9.9l-2-1-.1-29.5v-41.2q-.2-4.7 1.1-9.3h2l.3-1.7c.8-2.6 2.1-4.2 3.7-6.3l.4-1.9c.8-2.8 2.2-3.7 4.4-5.5 3.8-3.2 7.1-6.3 9.3-10.8.9-1.8.9-1.8 2.9-2.8l.9-2c1.1-2 1.1-2 4.1-3l1.5-3.4c2.5-5.3 6.6-8.9 10.8-12.9 2.7-2.7 4.6-5.5 6.7-8.7l3.4-3.9q4.5-5 8.2-10.5c1.4-1.6 1.4-1.6 4.4-2.6 1.7-1.7 1.7-1.7 3.4-3.8l1.9-2.2 1.7-2c3.6-4 3.6-4 7-4"/><path fill="#5d7b4c" d="M612 1021h119v21h-95v59h84v20h-84v68h-24z"/><path fill="#fefefe" d="m1261 1042 23.8-.1 7.4-.1h8.9c13.8 0 26.6 2.3 37.4 11.3 8.2 8.6 10.1 17.2 10 28.8a36 36 0 0 1-9.8 24.6 43 43 0 0 1-29.3 10.6h-21.8l-26.6-.1zm-811 0 23.8-.1 7.4-.1h8.9c13.8 0 26.6 2.3 37.4 11.3 8.2 8.6 10.1 17.2 10 28.8a36 36 0 0 1-9.8 24.6 43 43 0 0 1-29.3 10.6h-21.8l-26.6-.1z"/><path fill="#4a6d3d" d="M1206 804h4a292 292 0 0 1 23 51l1.2 3.6c5.5 17.6 7.3 38.7-1.2 55.7a51 51 0 0 1-10 11.7l-2.7 2.8-2.3 2.2-2.2 2.8c-3.5 2.7-5.6 3.2-10 3A30 30 0 0 1 1192 926v-3h-2l-3.9-7.2-1.2-2.1-1.1-2-1-1.9a27 27 0 0 1-1.9-11.6v-10.4c0-16.6 0-16.6 2.1-20.8l.9-6.1c.8-5.4 2-9.9 4.1-14.9l1-3.6c1-3.4 1-3.4 2.4-6.1 1.5-3.2 2.3-5.9 3-9.3a30 30 0 0 1 5.6-12l3-7c1.4-2.4 1.4-2.4 3-4"/><path fill="#fdfefd" d="M914 1047h2l24.7 55.8 2.4 5.4 3.4 7.7 1.1 2.3c1.4 3.3 2.5 6.3 3.4 9.8h-72c2-5.9 3.9-11.4 6.5-17l1-2.2 2.1-4.8 5.7-12.6 1.2-2.6 12.1-27.2 1.9-4.4z"/><path fill="#f2d30b" d="M1000.3 646.1c3.6 1.3 5 3.2 7.3 6.2l2.3 2.9c5.1 6.9 5.1 6.9 5.1 9.8h2l2 6h2a38 38 0 0 1 3.4 28c-.8 2-.8 2-2.4 5l-3 1-1.7 2.3a22 22 0 0 1-14.4 8.1c-5.6.2-10.3.1-14.9-3.4-1.6-2.3-1.6-2.3-3-5l-2.6-2.5c-4.8-4.8-5.4-9.9-5.8-16.5.1-8.7 2.6-17.4 8.4-24l1-2c1-2 1-2 2.9-3.8 2.2-2.1 2.2-2.1 3.6-5.2 3.5-7 3.5-7 7.8-6.9"/><path fill="#f1d40b" d="M1037.7 707.9h2.5l1.8.1.3 29.6v10.9l.1 3.4c0 6.3-.3 12.4-3.4 18.1-3 2.3-3 2.3-6 4l-2 3c-8 4.7-16.6 9.2-26 9l-.2-18.1-.1-6.2c-.4-24.6-.4-24.6 4.3-32.7q2.5-1.7 5-3l2-5 3-1 2-4q3.2-3.5 7.2-5.7l2.1-1.3c2.8-1 4.5-1.1 7.4-1.1"/><path fill="#f2d40a" d="M963.1 707.8c4.1.2 7.3 1.1 11.2 2.5l3.7 1.2c3.2 1.6 3.7 2.3 5 5.5l3 1 1 5h2c2.3 4.9 3.6 9.5 4.6 14.9a8 8 0 0 0 1.4 4.1l.1 4.1v17l-.1 6.1V784l-6.7-.4-3.8-.2c-4.6-.5-7.6-1.9-11.5-4.4v-2l-2.3.2c-2.7-.2-2.7-.2-4.5-1.5-1.2-1.7-1.2-1.7-2.2-4.7l-2.5-1.9c-3.9-4.9-3.1-9.9-3-16v-3.8l.1-8 .1-10.2.1-16.8v-3c.3-3.6.7-3.3 4.3-3.5"/><path fill="#80ab61" d="M1360.6 1278.9c3.1 1.8 3.1 1.8 4.4 3.1l1-4h6l.3 26.9v9.9l.1 3.1c0 8.1-1.5 14.1-7.4 20.1-5.3 4.2-10 4.6-16.8 4.4-6.2-.9-10.1-4-14.2-8.6-2-2.8-2-2.8-2-5.8l6-2 1.7 2.8c2.4 3.2 3.6 4.7 7.3 6.2 5.7.5 9.2.1 14-3 3.7-4 4.2-7.5 4.1-12.7v-3l-.1-2.3-1.8 1.4a21 21 0 0 1-16.2 3.6 27 27 0 0 1-16-14c-1-6.7-1.1-13.2 2.5-19.1 6.9-8.7 16.9-12 27.1-7"/><path fill="#7fab61" d="M1122.6 1278.9c3.1 1.8 3.1 1.8 4.4 3.1l1-4h6l.3 26.9v9.9l.1 3.1c0 8.1-1.5 14.1-7.4 20.1-5.3 4.2-10 4.6-16.8 4.4-6-.8-9.5-3.7-13.6-8a15 15 0 0 1-2.6-6.4l6-2 1.7 2.8c2.4 3.2 3.6 4.7 7.3 6.2 5.7.5 9.2.1 14-3 3.7-4 4.2-7.5 4.1-12.7v-3l-.1-2.3-1.8 1.4a21 21 0 0 1-16.2 3.6 27 27 0 0 1-16-14c-1-6.7-1.1-13.2 2.5-19.1 6.9-8.7 16.9-12 27.1-7"/><path fill="#f1d40f" d="M869 841c.3 4.9-.6 7.8-3 12h-2l-.6 2.9A45 45 0 0 1 856 870h-2l-.6 2.1c-1.6 3.3-3.4 5-6 7.4-1.9 2-3 4.2-4.4 6.5a19 19 0 0 1-10 8l-4 4q-4.9 3.7-10 7l-2.3 1.7A36 36 0 0 1 792 914c-.2-2.2-.2-2.2 0-5l1.8-2.3c2.4-2.9 3.6-5.7 5.1-9.2a61 61 0 0 1 15.6-19q2.3-2.3 4.3-4.9l2.2-2.6h2v-2q3.3-2.4 7.1-3.7c4.3-1.9 8-4.5 11.9-7l2.4-1.6c4.7-3.1 8.1-6.3 11.6-10.7h2l1-3c3.6-2.4 5.7-2.2 10-2"/><path fill="#f4d50e" d="M707 840c3.4.6 4.8 1.6 7.1 4.2a42 42 0 0 0 12.3 8.4c3.3 1.8 5.8 3.9 8.6 6.4l2.3 1.1c1.7.9 1.7.9 2.7 3.9l5.2 2.2c3.9 1.7 6.4 4.2 8.8 7.8l2.5 1.4c2.7 1.7 3.3 2.8 4.5 5.6l2 1v2h2l3.7 4.5c1.4 1.8 1.4 1.8 4.3 3.5 1 2.1 1 2.1 1.9 4.6q1.8 5.2 4.9 9.7c1.9 3 2.8 5 2.2 8.7-5.1-.5-12.2-2.2-16-6l-3.2-.3c-4.2-.8-5.7-2-8.8-4.7l-2.4-.9c-6.5-2.7-11.4-8.9-16.2-13.8l-2.8-2.7-1.4-1.5a104 104 0 0 0-7.9-7c-5-4-7.7-10.4-10.3-16.1v-2l-3-1-.4-2.1-.5-2.8-.6-2.7c-.4-2.4-.4-2.4-1.5-4.4z"/><path fill="#84ae66" d="M939 1244h7v74h-7v-4l-1.9 1.1c-5.8 3.2-10.5 5.2-17.1 3.9a27 27 0 0 1-15.4-13.3 25 25 0 0 1 2.1-18.9c3.3-4.5 7.8-8.5 13.3-9.8 7.7-.9 10.5.2 18 4z"/><path fill="#f2d40e" d="M870 885a46 46 0 0 1-7.9 19.1c-1.3 2-1.3 2-2 5-1.9 4.9-6.2 7.6-10.4 10.5-1.8 1.3-1.8 1.3-2.6 3.3-2.9 5.5-8.7 8.5-14.1 11.1l-1.8 1.9a22 22 0 0 1-7.9 4.7l-3.2 1.2q-5 2-10.2 3.5c-1.9.6-1.9.6-3.8 1.7-2.8 1.3-5.3 1.4-8.3 1.6l-3.3.3-2.5.1c2-14.3 16.7-28 27.5-36.3a165 165 0 0 1 9.9-6.2q5.6-3.4 11.1-7 3.5-2 7.5-3.5l5.5-3.4 2.8-1.7c2.8-1.9 2.8-1.9 5.3-4.1 3-2.3 4.8-2.1 8.4-1.8"/><path fill="#f3d40d" d="M705 884c5.2.3 7.9 2.1 11.7 5.4 1.3 1.6 1.3 1.6 1.3 4.6l3 1v2l2.4-.3a26 26 0 0 1 11.1 4q3.1 1.6 6.4 2.9a16 16 0 0 1 6.1 4.4l7.1 5.4 1.9 1.6v2h3v2h2l1 2 2.1 1.1c4.1 2.7 6.9 6.1 9.9 9.9l2.2 2.8 2.2 2.8 2.1 2.7c1.7 3.1 1.8 5.1 1.5 8.7h-10v-2l-2.3-.4-3-.5-3-.6c-2.7-.5-2.7-.5-5.7-1.5v-2l-2.2-.3c-3.1-.8-5.5-2-8.3-3.6q-5-3-10.5-5.1c-1.8-1.5-1.8-1.5-3-3v-2h-2c-1.6-1.4-1.6-1.4-3-3v-2h-2q-5.9-5.6-11-11.8c-2-2.2-2-2.2-4.1-4.2a13 13 0 0 1-3.5-5.8l-.7-2.1-.7-2.1-1.2-3.6a30 30 0 0 1-.8-9.4"/><path fill="#f1d411" d="M847 803h3c.3 8.4.2 15.2-3 23h-2l-.3 2.4q-1.6 8.7-5.7 16.6h-2l-.6 2.1c-2 4.1-4.9 6.9-8.1 10.1l-1.9 1.9A21 21 0 0 1 815 866v2a35 35 0 0 1-14.7 9l-3.3 1-1 3h-6c1.1-13.9 1.1-13.9 3-20l2-1 .7-2.6A53 53 0 0 1 814 837h3l.3-1.8c.8-2.5 1.7-3.6 3.5-5.4l1.8-1.8 1.9-1.8 1.9-1.9q6-5.9 12.9-10.9c2.2-1.8 3.4-3.8 4.7-6.4 1.5-2.3 1.5-2.3 3-4"/><path fill="#f4d510" d="M724 803c4.6.8 6.8 3.7 9.8 7.1l1.5 1.6 6.3 7.2q6.6 7.5 14.1 14.3c4.4 4.1 8.7 8 12.3 12.8l2.1 2c3.8 4 5.3 7.5 5.9 13h3a42 42 0 0 1 5 19c-6.1.8-10-1.9-15-5v-2l-1.7-.4a33 33 0 0 1-15.4-9.7l-2.1-2c-5-4.9-10-10-13.8-15.9v-2l-3-1c-3-6.1-3-6.1-3-9h-2l-.6-3.2-.8-4.2-.4-2.1c-.8-3.9-.8-3.9-2.2-7.5l-.1-6.6.1-3.6z"/><path fill="#82ac64" d="m1071 1281 1-3h7l1 33 5 2v6c-3.9.4-5.6.3-8.9-1.9l-2.1-2.1v-2l-2.3 1.3c-11.5 6.2-11.5 6.2-18.7 4.7-7.2-2.3-11.6-7-15.4-13.3a25 25 0 0 1 2.1-18.9c8.1-11.1 19.8-12.6 31.3-5.8"/><path fill="#80ab61" d="m855 1280 3 2v-4h6l.1 2.8.3 14.7.2 6.4.1 3.9c.1 3.4.1 3.4 2.3 6.2 2.1.7 2.1.7 4 1v5l-1 1c-4.5-.2-6.5-.6-9.9-3.6l-2.1-2.4-2.2 1.9c-5.4 4-10.2 5-16.8 4.1a25 25 0 0 1-14-11c-2.7-5.6-3.3-12-1.3-18.1 2.8-5.4 7.5-9.3 12.7-12.3a25 25 0 0 1 18.6 2.4"/><path fill="#efd40c" d="M1041 780c1 1 1 1 1.1 3.6v11l-.1 3.9v9.5h-2l-1 7-5 1-.2 3.3c-.8 3.7-.8 3.7-2.7 5.3l-2.1 1.4-1.3 2.4c-2 3-4 4.4-7 6.4-3 2.1-4.5 3.6-5.7 7.2a18 18 0 0 1-10 2l-.1-11.4v-3.3c0-17.4 0-17.4 5.1-24.3l1.1-2.8c.9-2.2.9-2.2 2.9-3.2l2.3-4.2c3.7-6.8 7.4-10 14.7-12.8l2.1-1.2c2.7-1.1 5-1 7.9-.8"/><path fill="#f0d512" d="M961 781a39 39 0 0 1 27.3 16c1.9 3.3 2.8 6.3 3.7 10l2.3 6c1.4 4.2 1.8 8.1 1.8 12.5v6.3l-.1 3.3v7.9c-3.7 1-4.7 1.1-8.4-.5A62 62 0 0 1 972 827v-2l-1.8-.7c-2.7-1.6-4-3.3-5.9-5.7l-1.8-2.4c-2.7-3.9-2.6-7.2-2.6-11.8v-19.7c.1-2.7.1-2.7 1.1-3.7"/><path fill="#dbe4d8" d="M1205 803h7v4h2v4h2l.4 1.9.6 2.1 2 1v4l3-1 1-2 6.9 13.9 2.2 4.2a55 55 0 0 1 4.8 12.4q1.4 5.5 3.5 10.9a75 75 0 0 1 4.1 27.9v3.9c-.1 9.3-.1 9.3-2 11.5l-1.5 1.3a100 100 0 0 0-2.5 9.4 39 39 0 0 1-9.5 16.6l-1.7 2.2c-4.6 5.7-9.6 10.1-17 11.2-6.1.2-10.9-.7-16.3-3.4-1.3-2.1-1.3-2.1-2-4l-3-1c-1.4-2.9-2-4.7-2-8h-2l-2.5-4.4-1.4-2.4c-1.1-2.2-1.1-2.2-1.1-4.2h-2a89 89 0 0 1-5-38l.1-2.1c.6-8.9 3.1-16.4 7.9-23.9l2-1c.3 5.9.1 11.2-1.5 16.9a93 93 0 0 0-1.7 22.9l.1 4.2.1 10h2l1.2 3.4q2.4 6.1 5.8 11.7c1 1.9 1 1.9 1 3.9h2l1.1 2.1c3.1 4.8 6.9 9.2 12.6 10.6l7.3.3.8-1.9c1.2-2.1 1.2-2.1 3.8-3.7 6.9-4.3 12-12.1 15.4-19.4l1.2-2.3c6.5-15.9 3.9-35.8-1.2-51.7l-1.2-3.7q-3.5-10.4-8.4-20.3l-2.8-6.3q-3.5-7.6-7.5-14.8l-1.2-2.2-1.1-2c-.8-1.7-.8-1.7-.8-3.7l-5 1z"/><path fill="#82ad64" d="M538.9 1279.2c3.5 2.2 5.9 4.3 8.1 7.8l1.8 2.8c2 5.2 2.1 9.5.4 14.8A26 26 0 0 1 537 1318a24 24 0 0 1-17.2-.5c-5-2.9-8.2-6.9-11.1-11.8a24 24 0 0 1 2-18.9c6.8-9.3 17.6-13.2 28.2-7.6"/><path fill="#82ac64" d="M1541.3 1278.6a30 30 0 0 1 11.1 11.8 25 25 0 0 1-2 18.8 21.8 21.8 0 0 1-32.3 4.8 25 25 0 0 1-7.4-18.6c.8-5.5 3.8-9.9 7.8-13.7l2.6-1.7 2.6-1.7a22 22 0 0 1 17.6.3m-773 0a30 30 0 0 1 11.1 11.8 25 25 0 0 1-2 18.8 21.8 21.8 0 0 1-32.3 4.8 25 25 0 0 1-7.4-18.6c.8-5.5 3.8-9.9 7.8-13.7l2.6-1.7 2.6-1.7a22 22 0 0 1 17.6.3"/><path fill="#81ac62" d="M1418 1280c2.7 2.3 2.7 2.3 5 5l2.3 2.6a25 25 0 0 1 1.2 17.6 24 24 0 0 1-13.3 13.1 20 20 0 0 1-15.4-.9 25 25 0 0 1-11.8-14.4c-.7-5.9-.7-11.4 2.7-16.4 8-9.4 18-12.9 29.3-6.6m-206 0c2.7 2.3 2.7 2.3 5 5l2.3 2.6a25 25 0 0 1 1.2 17.6 24 24 0 0 1-13.3 13.1 20 20 0 0 1-15.4-.9 25 25 0 0 1-11.8-14.4c-.7-5.9-.7-11.4 2.7-16.4 8-9.4 18-12.9 29.3-6.6"/><path fill="#f2d510" d="M785 720h4l.4 2.5.5 3.3.5 3.2a22 22 0 0 0 2.6 7l1.5 7.1 1 5.5q2.1 12.2 2 24.7v2c0 10.8-1 20.2-6.5 29.7-2 2-2 2-4.4 2.1-4-1.7-4.9-5.2-6.6-9.1-7.5-22.5-5.1-45.3 2.2-67.4q1.6-5.2 2.8-10.6"/><path fill="#f2d410" d="M821 768h4l.2 13.4.1 3.9c0 7.2-.5 13-3.3 19.7l-1 3.1-1 2.9-1.1 3.2A53 53 0 0 1 808 829h-2l-.5 2.1a27 27 0 0 1-9.5 9.9h-4v-24h2l.3-2.5A51 51 0 0 1 804 794l2.9-4.4q4.2-6.3 8.6-12.2 2.1-3.5 3.5-7.4z"/><path fill="#f3d610" d="M750 769c3.7 1.2 3.4 1.7 5 5l2.2 2c3.7 3.6 5.9 8.1 8.4 12.5l2.9 5 4.1 7.5c1.3 2.3 1.3 2.3 4.4 3q1.6 3.3 2.6 6.8l.7 2A92 92 0 0 1 783 842c-8.6-.6-13.4-7.9-18.8-14a61 61 0 0 1-13.9-30.8c-.1-2.2-.1-2.2-1.3-3.2l-.1-5.3v-16.4c.1-2.3.1-2.3 1.1-3.3"/><path fill="#82ac63" d="M989.3 1278.6c5 2.9 8.4 7 11.1 12 .7 2.4.7 2.4.7 8.4h-35c2.3 7.9 2.3 7.9 8 12 4.9.7 9.3.7 14-1.2 2-1.7 2-1.7 3.3-3.9 1.7-1.9 1.7-1.9 5.3-2.1l3.4.2a23 23 0 0 1-10 13 24 24 0 0 1-15 2c-7.8-2.8-11.5-7.4-15.4-14.3-1.5-6-1.4-10.9 1.5-16.5 2.2-3.5 4.3-5.9 7.9-8.2l2.6-1.7a22 22 0 0 1 17.6.3"/><path fill="#81ac63" d="M1308.2 1278.5c5.3 3 9.9 7.7 11.8 13.5v7h-35c3 8.3 3 8.3 6.1 11.1q6.8 2.2 13.9.9 4.7-2.4 7-7h7c-1.2 6.3-5 9.3-10 13a21 21 0 0 1-14 2 27 27 0 0 1-16-14c-1-6.6-1.1-13.2 2.5-19.1 6.7-8.4 16.5-11.8 26.7-7.4"/><path fill="#81ac62" d="M485.4 1259.6c4.8 2.6 10.6 6.3 12.4 11.7l.2 1.7-5 3-1-1.4c-3.9-5-7.7-8-14-9.6-7.6-.9-14.7-.9-21 4-4.2 4.1-7.7 8.1-8.3 14.2-.2 11.3-.2 11.3 5.1 20.8 6.9 6.3 12.4 7.5 21.7 7.4 6.7-.7 11.3-3.7 15.6-8.7l1.9-2.7 5 3c-1.3 5.6-5.4 8.8-10 12a34 34 0 0 1-24.6 3.3A35 35 0 0 1 443 1300a33 33 0 0 1-.4-23.8c8.6-16.5 25.3-23.7 42.8-16.6"/><path fill="#77ac5a" d="M1203 750h9l.6 1.9.8 2.5.7 2.5c.7 2.3.7 2.3 2.9 3.1l2 5 1.7 2c1.3 2 1.3 2 1.3 4.4-1.3 3.5-3.6 5.8-6 8.6l-1 2.5a24 24 0 0 1-6 8.5h-4c-2-2-2.9-3.8-3.9-6.4-1.4-3.3-3.5-5.2-6.1-7.6-2-2-2-2-2.6-5 .1-4.8 3.1-7.8 5.8-11.5 2.4-3.4 3.6-6.6 4.8-10.5"/><path fill="#fcfdfc" d="M1538 1284c4.4 2.3 7.1 5.5 9 10 .5 5.2-.1 8.6-3 13-5.1 4.6-8.4 5.4-15.2 5.4-4.4-.6-5.9-2.1-8.8-5.4-2.9-4.7-2.8-9.7-2-15 4.2-8.3 11.5-9.3 20-8m-475 0c4 2 6.6 4.2 9 8 .9 5.2.6 9.7-1.7 14.5a16 16 0 0 1-12.7 6.1 14 14 0 0 1-11.3-5c-3.4-4.2-3.9-8.2-3.3-13.6 4.7-9 10.2-11.4 20-10m-133 0c4 2 6.6 4.2 9 8 .9 5.2.6 9.7-1.7 14.5a16 16 0 0 1-12.7 6.1 14 14 0 0 1-11.3-5c-3.4-4.2-3.9-8.2-3.3-13.6 4.7-9 10.2-11.4 20-10"/><path fill="#fdfdfc" d="M849 1284c4.4 2.1 7.2 4.4 9 9 .7 4.7.5 8.7-1.7 12.9-3.5 4.7-3.5 4.7-7.3 6.1-4.9.5-9.3.6-13.9-1.1a18 18 0 0 1-6.6-12.9 18 18 0 0 1 6.6-12.9c4.6-1.7 9-1.7 13.9-1.1"/><path fill="#fcfdfc" d="M765 1284c4.4 2.3 7.1 5.5 9 10 .5 5.2-.1 8.6-3 13-5.1 4.6-8.4 5.4-15.2 5.4-4.4-.6-5.9-2.1-8.8-5.4-2.9-4.7-2.8-9.7-2-15 4.2-8.3 11.5-9.3 20-8m-231 0c4 2 6.6 4.2 9 8 .9 5.2.6 9.7-1.7 14.5a16 16 0 0 1-12.7 6.1 14 14 0 0 1-11.3-5c-3.4-4.2-3.9-8.2-3.3-13.6 4.7-9 10.2-11.4 20-10"/><path fill="#fdfdfc" d="M1412 1284c4.4 2.1 7.2 4.4 9 9 .7 4.7.5 8.7-1.7 12.9-3 4-4.8 5.7-9.8 6.5-5.1.3-8.6.2-12.6-3.1a16 16 0 0 1-5.3-11.1 18 18 0 0 1 4.4-11.2c4.4-4.1 10.3-3.8 16-3m-61.1-.4h3.1c3.4.4 5.2 1.3 8 3.4 3.4 4.8 4.7 7.9 4 14-1.8 4.8-4.4 8.8-9 11-5.4.9-9.6.6-14.5-1.6a17 17 0 0 1-6-12.9 15 15 0 0 1 4.5-10.5c3.2-3 5.5-3.4 9.9-3.4m-144.9.4c4.4 2.1 7.2 4.4 9 9 .7 4.7.5 8.7-1.7 12.9-3 4-4.8 5.7-9.8 6.5-5.1.3-8.6.2-12.6-3.1a16 16 0 0 1-5.3-11.1 18 18 0 0 1 4.4-11.2c4.4-4.1 10.3-3.8 16-3m-93.1-.4h3.1c3.4.4 5.2 1.3 8 3.4 3.4 4.8 4.7 7.9 4 14-1.8 4.8-4.4 8.8-9 11-5.4.9-9.6.6-14.5-1.6a17 17 0 0 1-6-12.9 15 15 0 0 1 4.5-10.5c3.2-3 5.5-3.4 9.9-3.4"/><path fill="#c9d6c3" d="M1182 850h1c.3 5.9.1 11.2-1.5 16.9a93 93 0 0 0-1.7 22.9l.1 4.2.1 10h2l1.2 3.4q2.4 6.1 5.8 11.7c1 1.9 1 1.9 1 3.9h2l1.1 2.1c3.1 4.8 6.9 9.2 12.6 10.6l7.3.3.8-1.9c1.4-2.5 3.1-3.4 5.5-4.8 3.4-2.6 6-6 8.7-9.3 0 3 0 3-1.4 4.5l-1.6 1.5-1 3q-3 2-6.2 3.7c-2.1 1.3-2.1 1.3-2.8 4.3-5.8.9-10.4 1.5-16-1v-2h-2v4l7 1v2a33 33 0 0 0 24.1-13.9l3.9-5.1 1 2a55 55 0 0 1-20 18c-7 .6-12.7.2-19-3-1.3-2.1-1.3-2.1-2-4l-3-1c-1.4-2.9-2-4.7-2-8h-2l-2.5-4.4-1.4-2.4c-1.1-2.2-1.1-2.2-1.1-4.2h-2a89 89 0 0 1-5-38l.1-2.1c.6-8.4 2.7-18.7 8.9-24.9"/><path fill="#83ad65" d="M1469.9 1279.7a19 19 0 0 1 8.7 10.6l.4 1.7c-3.2.4-3.2.4-7 0-2.1-1.8-3.4-3.8-5-6-5-1.6-11.2-2.4-16 0-2.8 2.2-5 4.6-6 8-.5 5.3.1 8.6 3 13 2.3 2.8 4 3.9 7.5 4.4 6 .3 9.9-.2 14.5-4.4l2-3h6c-.4 4.8-2.5 8-6 11a24 24 0 0 1-18 4 27 27 0 0 1-15.4-13.3 25 25 0 0 1 2-18.8 22 22 0 0 1 29.3-7.2"/><path fill="#81ac62" d="M1254 1277c4.9 1.9 8.1 4.6 11 9 1.1 3.4 1.1 6 1.1 9.6v8.1l-.1 4.1v10.2h-7v-2.7l-.2-9.9v-4.3l-.1-6.1v-3.8c-.4-3.4-.4-3.4-3-5.6-2.7-1.9-2.7-1.9-6.3-1.6-3.8 1.1-5 1.9-7.4 5-.6 3.2-.6 3.2-.6 6.7l-.1 4v4.1l-.1 4.1-.2 10.1h-6v-40h6l1 2 2.1-1.5c3.7-1.9 5.8-2 9.9-1.5"/><path fill="#7eaa5f" d="M582 1277c5.3 1.9 7.8 4.6 11 9 1.1 3.4 1.1 6 1.1 9.6v8.1l-.1 4.1v10.2h-6v-2.5l-.2-11.2-.1-3.9-.1-3.8-.1-3.5c-.6-3.7-1.8-5.4-4.5-8.1-3.4-1.2-3.4-1.2-7-1-2.8 1.8-4.5 3-6 6l-.3 6.3-.1 3.8-.2 4-.1 4-.3 9.9h-6v-40h6l1 2 2.1-1.5c3.6-1.9 5.8-1.9 9.9-1.5m61 1h6l.1 2.4.3 10.8.1 3.8.1 3.6.1 3.4c.3 3 .9 5.3 2.3 8a15 15 0 0 0 10 1c2.9-2.2 3.9-3.4 4.5-7.1l.1-3.6.1-4 .1-4v-4.2l.2-10.1h6l.2 12.9.1 4.4.1 6.3.1 3.9a17 17 0 0 1-6.6 11.3 19 19 0 0 1-12.9 2.2 18 18 0 0 1-10-8c-1.2-3.5-1.1-6.2-1.1-9.9v-8.3l.1-4.3z"/><path fill="#82ac63" d="M1579 1277c4.2 1.6 6.6 3.2 9 7l-6 2-2-1-4.1-.1-3.9.1v6l3 1.6 3.8 2.2 2 1c3.5 2 6.3 3.6 8.2 7.2.4 4.3.5 6.9-1.1 10.8-3.4 4-6.7 5-11.8 5.7q-7-.5-12.1-5.5c-.7-2.2-.7-2.2-1-4 3-2 3-2 6-2v2c2.8.9 4.7 1.1 7.6 1.1h2.4c2 .1 2 .1 3-1.1v-5l-2.9-1.5-5.8-3.1a22 22 0 0 1-9.3-9.4c-.6-2.9-.6-2.9 0-6 4.2-6.3 7.2-8.5 15-8m-957 0c4.2 1.6 6.6 3.2 9 7l-6 2-2-1-4.1-.1-3.9.1v6l3 1.6 3.8 2.2 2 1c3.5 2 6.3 3.6 8.2 7.2.4 4.3.5 6.9-1.1 10.8-3.4 4-6.7 5-11.8 5.7q-7-.5-12.1-5.5c-.7-2.2-.7-2.2-1-4 3-2 3-2 6-2v2c2.8.9 4.7 1.1 7.6 1.1h2.4c2 .1 2 .1 3-1.1v-5l-2.9-1.5-5.8-3.1a22 22 0 0 1-9.3-9.4c-.6-2.9-.6-2.9 0-6 4.2-6.3 7.2-8.5 15-8"/><path fill="#7eaa5f" d="M712 1261h6v17h11v6h-11l.3 11.8.1 3.3.1 3.3.1 2.9c.5 3.1 1.2 4.5 3.4 6.7 3.6.8 3.6.8 7 1v5c-3.2 1.6-5.5 1.4-9 1-3.8-2.4-6.6-4.7-8-9l-.1-6v-7.2l.1-3.7v-9.1h-7v-6h7z"/><path fill="#7ca95d" d="M688 1244h6v74h-6z"/><path fill="#f5e56b" d="M1037.7 707.9h2.5l1.8.1.3 29.6v10.9l.1 3.4c0 6.3-.3 12.4-3.4 18.1-3 2.3-3 2.3-6 4l-2 3c-8 4.7-16.6 9.2-26 9l-.2-18.1-.1-6.2c-.4-23.7-.4-23.7 4.3-32.7l3-2c.4 4.3.3 6.8-1.9 10.6a27 27 0 0 0-2.7 14.1v2.7l-.1 8.6-.1 5.8-.2 14.2 3-2c3.2-.2 3.2-.2 6 0v-2l2-.3c6.2-1 9.7-2.2 14-6.7l1-3 2-.8c2.6-1.6 2.9-3.1 3.6-6 .8-4.5.7-9.1.6-13.6V735l-.1-7-.1-17-1.8.6-16.2 5.4c2.1-3.1 4-5 7.2-6.8l2.1-1.3c2.7-.9 4.5-1 7.4-1"/><path fill="#dde7d9" d="M1186 777a8 8 0 0 1 5.9 3l1.9 2.4 1.8 2.5c1.4 2.1 1.4 2.1 1.4 4.1l1.8.8c2.6 1.4 3.7 2.6 5.2 5.2.2 3.3.2 3.3 0 6l-3 1c-.8 1.9-.8 1.9-1.2 4.1l-.5 2.2-.3 1.7 4-2a56 56 0 0 1-5.8 13.8c-2.8 5.2-4.9 10.8-7.2 16.2h-2l-.3 2.1c-.8 3.3-2.1 5.9-3.7 8.9h-2a34 34 0 0 1 2.3-14.5l1.3-3.8 3-7.5c1.2-2.8 1.9-5.2 2.4-8.2h2v-4l2-1 2.6-4.7 1.3-2.7q1.6-3.6 2.1-7.6l-3-1-4.2-4.9-2.2-2.8c-1.6-2.3-1.6-2.3-1.6-4.3-3.4.3-4.2 1.2-6.6 3.9l-4.4 6.1h-2l.9-2.1 3.1-8.9h3z"/><path fill="#9bc284" d="m1083 780 .1 37.5.1 17.4v34.8c0 5.7-.7 10.8-2.2 16.3q-1.1-4-1.1-8.2v-41l.1-17.5V785l-1.9 1.9-2.4 2.4-2.5 2.5-4.9 4.8q-4.3 4.6-8.3 9.4a161 161 0 0 1-12.6 13.5c-1.5 1.5-1.5 1.5-2.6 3.7-2.5 4-5.7 7.3-8.8 10.8l-1-2c2.7-6.1 6.9-10.1 11.7-14.7q3.6-3.7 6.3-8.3l5.2-5.9q3.4-4.1 6.4-8.5c1.4-1.6 1.4-1.6 4.4-2.6 1.7-1.7 1.7-1.7 3.4-3.8l1.9-2.2 1.7-2c3.6-4 3.6-4 7-4"/><path fill="#cbdfc0" d="M918 779c4.3.8 6 2.8 9 6l1.8 1.8 1.2 1.2-1 2-4.5-3.8c-1.5-1.3-1.5-1.3-3.5-2.2l-.1 35.4v49.5c0 3.3 0 5.9 1.1 9.1l.5 5.3a60 60 0 0 0 5.5 20.4c1 2.3 1 2.3 1 4.3h3v3h2v3h2l1.1 2.6c2.1 3.8 4.5 6.3 7.6 9.3l1.5 1.5 3.8 3.6c-3.8 0-4.8-1.4-7.3-3.9l-1.6-1.7-1.6-1.5c-8.5-8.6-8.5-8.6-8.5-13.9h-3a35 35 0 0 1-5-14h-2c-4.2-11.7-3.4-23.9-3.3-36.1v-7.1l.1-18.3.1-18.8z"/><path fill="#f5df42" d="M963.1 707.8c4.1.2 7.3 1.1 11.2 2.5l3.7 1.2c3.2 1.6 3.7 2.3 5 5.5l3 1 1 5h2c3.3 7 3.3 7 2 11l-.9-1.9c-4.1-8.6-8.2-15.1-17.1-19.1l-11-2v52h2l.5 1.8c1.8 5.1 1.8 5.1 5.8 8.5l5.3 1.8a17 17 0 0 1 7.4 5.9l2 2a30 30 0 0 1-12-4v-2l-2.3.2c-2.7-.2-2.7-.2-4.5-1.5-1.2-1.7-1.2-1.7-2.2-4.7l-2.5-1.9c-3.9-4.9-3.1-9.9-3-16v-3.8l.1-8 .1-10.2.1-16.8v-3c.3-3.6.7-3.3 4.3-3.5"/><path fill="#7eaa5f" d="M1173 1277v6l-1.8.3c-5.5.9-8.5 2.1-12.2 6.7-1.3 2.7-1.2 4.9-1.3 7.9l-.1 3.5-.2 3.7-.1 3.8-.3 9.1h-6v-40h6l1 4 2.3-1.9c4.3-3.3 7.5-3.2 12.7-3.1m-357 0v6l-1.8.3c-5.5.9-8.5 2.1-12.2 6.7-1.3 2.7-1.2 4.9-1.3 7.9l-.1 3.5-.2 3.7-.1 3.8-.3 9.1h-6v-40h6l1 4 2.3-1.9c4.3-3.3 7.5-3.2 12.7-3.1"/><path fill="#a3c591" d="M988 860h2v3h2v3h2c2.5 5.1 3.4 8.9 3.3 14.7v14.4l-.1 13.1-.1 13.5-.1 26.3c-5.5 2.8-12.4.6-18-1v-1h15l-.3-27.4-.1-12.7-.2-12.2V889c.7-12.7.7-12.7-4-23.7L988 864z"/><path fill="#94be7c" d="M1159 820c1.1 3.8 1.1 3.8 0 6h-2v6l-2 1a66 66 0 0 0-5 15l-1 3h-2l-.1 1.9-.1 2.5-.2 2.5c-.6 2.9-1.3 4.7-2.6 7.2-2.6 5.6-2.5 10.7-2.4 16.8v3.1c0 5.8 0 5.8 2.4 11l1 5.2q1.2 7 3 13.8h-2l-1-5h-2l-.6-2.5-.8-3.3-.7-3.3c-.8-3.1-.8-3.1-2.9-5.9a83 83 0 0 1 10.1-51.2q1.7-3.7 2.7-7.8l.7-2.9.5-2.1h2l.8-3.8c.8-3.2 1.5-5.2 4.2-7.2"/><path fill="#7da95e" d="M1491 1278h6v40h-6z"/><path fill="#a9c998" d="M1021 849c0 3.6-.9 4.2-3 7l-2 5-2 3h-2l-.6 1.8-.8 2.5-.7 2.3c-.9 2.4-.9 2.4-1.9 4.1-1.3 3.1-1.2 5.7-1.2 9.1v13.3l.1 12.2v12.4l.1 24.3 18-1v-2l6.4-2.1 3.6-1.1c3-.8 3-.8 5 .2l-4.2 2.4-2.3 1.3a51 51 0 0 1-26.5 5.3l-2-1-.1-29.5v-41.2q-.2-4.7 1.1-9.3h2l.3-1.7c.8-2.6 2.1-4.2 3.7-6.3l.3-1.9c.9-2.9 2.5-4 4.8-5.8l2.2-1.9z"/><path fill="#f5d928" d="M779 743c1.2 3.8 1.1 7.4 1 11.3l-.1 4.5-.1 6.8c-.2 10.2.3 19.5 3.2 29.4l1 1v5h2l1 2c2.3-2.9 3.8-5.5 5-9h2a26 26 0 0 1-4 12c-2.6 1-2.6 1-5 1-3.5-3.5-4.5-8.3-6-13l-.9-2.9a98 98 0 0 1-2.5-24.8v-3.5c0-7.1.9-13.2 3.4-19.8"/><path fill="#bbd3af" d="m1188 920 2 1v2h2l1.1 2.1c3.1 4.8 6.9 9.2 12.6 10.6l7.3.3.8-1.9c1.4-2.5 3.1-3.4 5.5-4.8 3.4-2.6 6-6 8.7-9.3 0 3 0 3-1.4 4.5l-1.6 1.5-1 3q-3 2-6.2 3.7c-2.1 1.3-2.1 1.3-2.8 4.3-5.8.9-10.4 1.5-16-1v-2h-2v4l7 1v2a33 33 0 0 0 24.1-13.9l3.9-5.1 1 2a55 55 0 0 1-20 18c-7 .6-12.7.2-19-3-1.3-2.1-1.3-2.1-2-4l-3-1c-.7-2.1-.7-2.1-1-4l5 1c-.8-3-.8-3-2-6l-3-1z"/><path fill="#abc0a3" d="M1193 829c.8 1.6.8 1.6 1 4l-3 5.1q-1.8 3.7-2.5 7.7-.9 3.7-2.1 7.1-1.8 6-2.2 12.3c-.2 1.8-.2 1.8-1.2 3.8q-1.3 11.2-1.6 22.6l-.1 3.6-.3 8.8c-3.2-4.9-2.3-10.2-2.3-15.9l-.1-3.5c0-7.2.8-13.7 2.7-20.7 1-4.4.9-8.4.7-12.9l-4 8c-1.1-4.5-.8-5 1-9l1.4-5.9a68 68 0 0 1 4.6-13.1c1 2 1 2 .5 3.9l-.9 2.3a48 48 0 0 0-2.6 11.8c2.5-2.2 3.6-4.1 4.7-7.2l.7-2.2.6-1.6h2l.4-2.2c.6-2.6 1.3-4.5 2.6-6.8"/><path fill="#fbfcfa" d="M1305 1284c3.9 2.4 6.5 4.6 8 9h-27c2.1-5.3 3.1-6.4 7.7-9.1 4-1.6 7.3-1.3 11.3.1m-319 0q4 2.4 7 6v3h-26c2-5 2.8-6.1 7-9a19 19 0 0 1 12 0"/><path fill="#9ac287" d="M1186 777a8 8 0 0 1 5.9 3l1.9 2.4 1.8 2.5c1.4 2.1 1.4 2.1 1.4 4.1l1.8.8c2.6 1.4 3.7 2.6 5.2 5.2.2 3.3.2 3.3 0 6l-3 1-2 5-2.9 5q-3 5.8-5.1 12c-1-3.4-.9-5.6 0-9h2v-4l2-1 2.6-4.7 1.3-2.7q1.6-3.6 2.1-7.6l-3-1-4.2-4.9-2.2-2.8c-1.6-2.3-1.6-2.3-1.6-4.3-3.4.3-4.2 1.2-6.6 3.9l-4.4 6.1h-2l.9-2.1 3.1-8.9h3z"/><path fill="#f7e66f" d="M724 803c3.3.6 4.8 1.5 7 3.9l1.6 1.8 1.7 1.9 1.6 1.8 4.1 4.6c-3.9 0-4.8-1.3-7.6-3.9l-2.4-2.2c-2-1.9-2-1.9-3-3.9l.4 6.4.3 3.7c0 2.8 0 2.8 1.3 3.9v6h2l2 9h2l2 7h2c1.3 2.9 2 4.8 2 8-5-5.7-5-5.7-5-8l-3-1c-3-6.1-3-6.1-3-9h-2l-.6-3.2-.8-4.2-.4-2.1c-.8-3.9-.8-3.9-2.2-7.5l-.1-6.6.1-3.6z"/><path fill="#fbf7d3" d="M1037 779h6c2.6 2.6 1.3 9.4 1.4 12.9l.1 6c.1 7.9-.5 14.7-5.5 21.1l-3 1-3 5-2 1-1.4 2.9c-1.6 3.2-2.3 4-5.6 5.1v2l-1.9.3-2.1.7-1 3-4-1 3-1 .8-1.8c1.2-2.2 1.2-2.2 4.1-4.1 3.4-2.3 4.9-4.6 7.1-8.1l2-1 2-7 5-1 1-7h2l-1-27z"/><path fill="#f7e980" d="M1019 671h2a38 38 0 0 1 3.4 28c-.7 1.9-.7 1.9-2.4 5l-3 1-1.6 2.3c-4 4.5-8.4 7.3-14.4 8.1-5.8.2-10.2-.2-15-3.4v-2l2.5 1c3.7 1.1 7 1.4 10.9 1.6l3.7.3 2.9.1.3-1.9.7-2.1 6-2c1-2 1-2 1-4h2l1-4h2l-.1-2.4c.1-2.6.1-2.6 1.1-3.6l.1-5v-2.7c.2-2.3.2-2.3-1.1-3.3l-1.1-5.6-.5-3z"/><path fill="#f5e157" d="M821 768h4l.2 13.4.1 3.9c0 7.2-.5 13-3.3 19.7l-1.1 3.3q-1.3 3.8-2.9 7.7c-1.4-2.7-.7-4.2-.1-7.1l.6-2.8.5-2.1h2l-.1-2.9c.1-3.1.1-3.1 1.1-5.1l.1-5.4v-6.7l-.1-3.5V772l-3 7h-2l-.7 2.1c-1.6 3.7-3.6 6-6.3 8.9l-3 1c1.8-5.2 4.8-9 8.1-13.3a31 31 0 0 0 3.9-7.7z"/><path fill="#eaefe8" d="m1233 917 2 2-7 9-1.7 2.2c-4.4 5.4-9.5 10.2-16.7 11.1-2.2 0-2.2 0-5.6-.3v-2l-7-1v-4h2v2l5.8.5 3.2.3q3.5.3 7 .2l.1-1.7c1.4-3.5 3.8-4.5 6.9-6.3h2l.3-1.8c.8-2.5 1.9-3.9 3.6-5.9l1.6-1.8c1.5-1.5 1.5-1.5 3.5-2.5"/><path fill="#c3dbb7" d="M1258 826c3 1 3 1 3.9 2.7l.8 2.2.7 2.1c.6 2 .6 2 .6 5h2l.8 2.2 1 3 1 2.9a19 19 0 0 0 2.8 5.5 14 14 0 0 1 2.1 7.2l.2 2.4.1 1.8h2c1.7 12 1.1 23.9 0 36h-2l-1 3c-1.3-2.5-.8-3.3-.1-6a63 63 0 0 0 1.5-15.7v-2.9a59 59 0 0 0-7.5-28.6q-1.4-3-2.5-6.1c-1-3.6-1-3.6-2.9-5.1-2-2.1-2.2-3.9-2.7-6.8l-.5-2.7z"/><path fill="#faefa4" d="M963.4 707.8c3.6.2 3.6.2 5.6 2.2h-8l-.4 22.2-.1 7.5-.1 10.9-.1 3.4c0 6.6.8 10.5 5.1 15.5 2.2 2.1 4.3 3.2 7.1 4.2 4.6 1.8 7.3 3.5 10.5 7.3l2 2c-4.6-.6-8-1.8-12-4v-2l-2.3.2c-2.7-.2-2.7-.2-4.5-1.5-1.2-1.7-1.2-1.7-2.2-4.7l-2.6-1.9c-3.9-4.9-3.1-9.9-3-16l.1-3.8v-8l.1-10.2.2-16.8v-3.1c.3-3.6.8-3.2 4.6-3.4"/><path fill="#9cc387" d="M919 781c3.4.7 5.2 1.7 7.8 4.1l1.8 1.6 1.4 1.3-1 2-4.5-3.8c-1.5-1.3-1.5-1.3-3.5-2.2l-.1 35.4v49.5c0 3.3 0 5.9 1.1 9.1l.1 4.7-.1 2.4v1.9c-3.8-5.6-3.1-12-3.1-18.6v-35.8l.1-17.4z"/><path fill="#f1dc2b" d="M1041 780c1 1 1 1 1.1 3.6v11l-.1 3.9v9.5h-2l-1 7h-1v-31l-10 1c4.2-4.5 6.9-5.3 13-5"/><path fill="#d2e2c8" d="M1221 773v5l1.8-1.1c2.6-1 3.6-.8 6.2.1l-2.2 1.1c-3.7 2.5-4.7 5-6.8 8.9l-2 2-2 5-1 1-.1 4.1.1 3.9c-2.3-1.8-3-2.6-3.3-5.6.3-2.4.3-2.4 2.3-4.4v-4l-1.7 1.5c-2.7 1.7-4.2 1.8-7.3 1.5l1.7-.6q5.8-3.5 8.3-9.9c1.4-3.5 3.5-5.7 6-8.5"/><path fill="#f9eb8b" d="M816 818c.7 1.7.7 1.7 1 4-1.1 2.1-1.1 2.1-2.8 4.3l-1.7 2.1-1.5 1.6h-2v2h-2l-1 3c-1.7 1.5-1.7 1.5-3.8 2.9-2.4 1.8-4.4 3.3-6.4 5.5-1.8 1.6-1.8 1.6-5.8 1.6l-.1-10.9-.1-3.1v-5.8c.2-2.2.2-2.2 2.2-4.2v20c3.9-1.6 5.7-2.3 8.7-4.9l1.7-1.5c1.7-1.7 2.6-3.4 3.6-5.6l5-5z"/><path fill="#f5dc32" d="M807 843v3l-4 4a56 56 0 0 0-8.6 23.4c-.4 2.6-.4 2.6-1.4 4.6l2.6-2c3.6-2.1 5.3-2.4 9.4-2l-1 2-3.5.9-3.5 1.1-1 3h-6c1.1-13.9 1.1-13.9 3-20l2-1 .7-2.6c2.2-5.9 6.9-10 11.3-14.4"/><path fill="#faed91" d="M992 734c5.2 6.9 5.2 6.9 5.3 11.3v37.8c-.3 1.9-.3 1.9-2.3 3.9h-5v-2l-5-1c3.6-1.2 6.3-.7 10 0l-.3-17.7-.1-6.1-.2-8.6v-2.7l-.1-2.6v-2.2c-.2-2.2-.2-2.2-1.3-4.1-1-2-1-2-1-6"/><path fill="#bfd6a7" d="m1066 793 2 1c-1.5 4.9-4.5 8.2-7.8 12l-1.6 1.8q-5.3 6.1-11.2 11.7c-1.5 1.5-1.5 1.5-2.6 3.7-2.5 4-5.7 7.3-8.8 10.8l-1-2c2.7-6.1 6.9-10.1 11.7-14.7q3.6-3.7 6.3-8.3l5.2-5.9a129 129 0 0 0 7.8-10.1"/><path fill="#f9eb86" d="M1011 727h1c.4 5.3-.4 8.4-3 13.1-2.4 4.6-2.2 9.5-2.3 14.6l-.1 2.5-.2 8.1-.1 5.4-.3 13.3 16-4c-4.6 4.6-7.7 6-14.2 6h-2.8l-.2-18.1-.1-6.1c-.4-22.9-.4-22.9 4.3-32.8z"/><path fill="#f0f3ee" d="m1179 864-1 39-1-3h-2a98 98 0 0 1 1-35c2-1 2-1 3-1"/><path fill="#98c083" d="M1177 941a282 282 0 0 1 16 3v2l11.3-.4 3.2-.1q9.2-.2 18.1-2.2c2.5-.3 4.1-.1 6.4.7a59 59 0 0 1-25.2 4.4h-3a54 54 0 0 1-26.8-6.4z"/><path fill="#f5de3c" d="M837 815c0 3 0 3-2.5 5.5l-3.2 2.8A50 50 0 0 0 821 835q-3.2 3.5-6.6 6.9l-1.8 1.8c-4.3 4.3-4.3 4.3-6.6 4.3l-.1 1.7c-1.4 3.5-3.9 5-6.9 7.3a59 59 0 0 1 10-14.8l2.6-3c2.4-2.2 2.4-2.2 5.4-2.2l.3-1.8c.8-2.6 1.8-3.6 3.7-5.5l1.8-1.8 2-1.9 1.8-1.9q4.9-4.9 10.4-9.1"/><path fill="#f8e874" d="m1026.3 785.2 1.7.8-2.6 1.4c-5.7 3.7-8.5 10.7-11.4 16.6h-2l-.4 2.3c-.6 2.7-.6 2.7-1.6 5.7h-2l-2 31 4 1h-5l-.1-11.4v-3.3c-.1-17.4-.1-17.4 5.1-24.3l1.1-2.8c.9-2.2.9-2.2 2.9-3.2l2.3-4.2c5.4-10 5.4-10 10-9.6"/><path fill="#fbf1aa" d="m773 894 3 1 3 7 1.7 2.3c1.3 1.7 1.3 1.7 1.3 4.7h2v8c-6.2.3-10.3-.5-16-3v-2l-2.1-.5-2.7-.7-2.7-.8c-2.9-1.2-3.9-2.4-5.5-5l1.6.9c2.5 1.3 2.5 1.3 5.9 1.5 3.5.6 3.5.6 5.3 2 2.7 2 5.3 2.8 8.5 3.8l3.2 1 2.5.8a63 63 0 0 0-5.6-12.7c-3.4-6.1-3.4-6.1-3.4-8.3"/><path fill="#cfe2c4" d="M1143 857c1.3 3.9.3 5.9-1.3 9.6-1.4 4.7-1.3 9.4-1.3 14.2v3.3a71 71 0 0 0 7.6 28.9v2h-2l-1-5h-2l-.6-2.5-.8-3.3-.7-3.3c-.8-3.1-.8-3.1-2.9-5.9q-.6-5.6-.4-11.3v-3.3c.1-8.7 1.6-15.6 5.4-23.4"/><path fill="#f9e87b" d="M777 780c2.6 2.6 3 5 4.1 8.6.8 4 .8 4 2.9 7.4v5h2l1 2c2.3-2.9 3.8-5.5 5-9h2a26 26 0 0 1-4 12c-2.6 1-2.6 1-5 1-5.4-5.4-7-15.6-8-23z"/><path fill="#f7e454" d="M705 884c6 .3 8.9 3 13 7-3 1-3 1-5.7-.3L710 889v-2h-3l.8 1.5A65 65 0 0 1 713 902l1.6 3.3c1.4 2.7 1.4 2.7 1.4 5.7-6.6-4.1-7.9-10.8-10.2-17.7-.8-3.3-1-6-.8-9.3"/><path fill="#90a689" d="M1235 865c5.9 8.9 4.4 26.7 2.5 36.8-3.5 12.9-3.5 12.9-8.5 16.2l1-8h2c3.8-9.2 3.3-18.4 3.2-28.1l-.1-4.9z"/><path fill="#fbfcfb" d="M1236 857h2c4.8 7.7 3.1 18.8 3.1 27.5l-.1 4.2V899h-2l-.1-2.2-.3-10.2-.1-3.6c-.2-5.9-.5-11.4-2.1-17.1-.7-3-.5-5.8-.4-8.9"/><path fill="#ccd9c7" d="M1230 833c3.2 1.6 3.9 4.8 5 8q3.3 9.8 5 20l-2-4h-2l1 11c-2-3.1-2.8-5.4-3.9-8.9a233 233 0 0 0-5.5-16.7c-.6-2.4-.6-2.4.4-4.4l.8 2.1 1.1 2.7 1 2.7c1.1 2.7 1.1 2.7 3.1 5.5l1-1-1.4-5.4-.7-3c-.7-2.7-.7-2.7-2.9-4.6z"/><path fill="#fbf5c6" d="M822 767h5l.2 15.8c0 10-.8 19.2-5.2 28.2l-1.2 2.4-.8 1.6c-1.7-4.4 0-7.6 1.8-11.8a62 62 0 0 0 2.9-21.8l.1-3.9.2-9.5z"/><path fill="#f6df46" d="m750 769 3 1v2h-2l.9 11.8.2 3.3q.9 10.6 2.9 20.9l.6 2.8.4 2.2c-3.1-3.2-3.7-6.4-4.5-10.6-.4-2.5-.4-2.5-1.5-4.9-1.5-5.3-1.2-10.4-1.2-15.8v-3.4c.1-8.2.1-8.2 1.2-9.3"/><path fill="#7c9476" d="M1184 854c.9 3.1 1 5.5.6 8.6l-.2 2.4c-.4 2-.4 2-1.4 4q-1.3 11.2-1.6 22.6l-.1 3.6-.3 8.8c-3.2-4.8-2.4-9.9-2.4-15.6v-3.6c.1-10.2.8-21.5 5.4-30.8"/><path fill="#f2f5f0" d="M1179 907h2v5h2l1.4 3.4c1.2 3.6 1.2 3.6 3.6 4.6l.4 1.8c.5 2.4.5 2.4 2.7 4.3l1.9 1.9v3l-6-2v-3h-2c-4-6.5-6.9-11.3-6-19"/><path fill="#fbf4c0" d="M799 932c0 3.4-.7 4.5-2.4 7.4a65 65 0 0 0-4.6 9.6l7.1-1.3 2-.4c4.4-.8 8-2.2 11.9-4.3l4.4-1.6 2.3-.7 9.3-2.7v2q-8.7 3.8-18.1 6.3c-2.1.5-2.1.5-2.9 2.7-5.8 1.4-12.1 1.1-18 1-.4-2.7-.4-4.4 1.1-6.7l2.7-3.6c1.3-1.7 1.3-1.7 1.7-3.8.5-1.9.5-1.9 3.5-3.9"/><path fill="#f8f0ac" d="M958 780c5.2-.2 8.5-.3 13 2.5l2.3 1.4 1.7 1.1-2 1q-3.1-1.4-5.9-3.1c-2.3-1.2-2.3-1.2-6.1-.9l-.1 12.1-.1 4.1v9.5a30 30 0 0 0 2.2 9.3c-3.7-2.5-3.9-3.8-5-8-.2-3.3-.2-3.3-.2-6.9v-3.9l.1-4.1V790z"/><path fill="#fbf2b6" d="M748 766h6v5h2l-1 4-1.4-2.5-1.6-2.5h-2l-.1 11.6-.1 3.3c0 5.5.1 10 2.2 15.1l1 4.5q1.2 5.3 3 10.5c-7-6.5-7.8-14.4-8.2-23.7l.1-11.5v-4.1z"/><path fill="#f2f5f0" d="M1224 827h4c2 3.5 2.9 7.1 4 11l1.6 4.6q1.6 4.6 2.4 9.4l-3 1-1-2.9-1.4-3.8-1.3-3.7-2.5-6.4c-.8-2.2-.8-2.2-.8-5.2h-2z"/><path fill="#f5e056" d="M847 803h3c.3 8.4.2 15.2-3 23h-2l-.4 2.8c-.5 2.8-1.2 4.7-2.6 7.2.7-6.9 2.2-13.3 4-20h2l-1-7-1.4 1.5C844 812 844 812 842 812c.6-3.9 2.3-6.2 5-9"/><path fill="#f6de37" d="M978 679h1v16h2l1 6h2l1.1 2.2c2.8 4.1 6.2 6.1 10.9 7.8q6 1 12 1v1c-14.5.9-14.5.9-20.3-3.5L986 708l-1.7-1.5a21 21 0 0 1-7.4-16.7c0-3.8.1-7.1 1.1-10.8"/><path fill="#fcf6d1" d="m847 801 5 1c.5 8.9-.3 15.8-4 24-1.4-3.7-.5-5.4 1-9q.4-3.6.6-7.3l.3-3.8.1-2.9c-4.4 1.5-6.2 4.4-8.2 8.4-2.6 3.8-6.1 6-9.8 8.6l-1-2 2.4-1.8c4.9-4.1 8.7-9.3 12.6-14.2z"/><path fill="#eef3eb" d="M1211 795h1l.9 3.2c1.5 5.9 1.5 5.9 5 10.6 3 3.2 3.9 7 5.1 11.2l-2 1-2-1v-4l-3-1v-4h-2v-4h-2v-4h-6v-2h4z"/><path fill="#f6e460" d="M772 931c9.7 9.2 9.7 9.2 10.3 15.4l-.3 2.6h-10v-2l-2.3-.4-3-.5-3-.5c-2.7-.6-2.7-.6-5.7-2.6 6-.3 9.4.5 15 3l7 1-5-8v-3l-3-1z"/><path fill="#f4e253" d="M870 885a46 46 0 0 1-7.9 19.1c-1.3 2-1.3 2-2.1 5.2-1.3 3.4-3 4.7-6 6.7.6-5.6.6-5.6 2.4-7.3 2.1-2.2 3.1-4.6 4.3-7.4l1.3-3 1-2.3h2l2-9-2.3 1.6-2.7 1.4-3-1c3.7-3.5 5.9-4.5 11-4"/><path fill="#f5df41" d="M775 804h2a96 96 0 0 1 6 38c-4-.3-5.6-.5-8.4-3.6L773 836c3 .6 4.4 1.3 7 3 .7-14.8.7-14.8-3-29h-2z"/><path fill="#f2e25d" d="M994 815h1q1.1 5.3 1.1 10.5v6.3l-.1 3.3v7.9c-5.5 1.2-5.5 1.2-8.7-.7l-1.7-1.1C984 840 984 840 982 837l7 2v2h5z"/><path fill="#bad2ae" d="M1197 789c3.4 1.4 5.2 2.8 7 6 .2 3.3.2 3.3 0 6l-3 1-2 5-2.9 5q-3 5.8-5.1 12c-1-3.4-.9-5.6 0-9h2v-4l2-1c3-4.5 5.5-9 4.9-14.4-.7-3.7-.7-3.7-2.9-6.6"/><path fill="#f0dc38" d="M1008 812h1l.1 13.4v10.9c-.1 2.7-.1 2.7-1.1 4.7l7-1v2l-9 1c-.2-10.6.3-20.6 2-31"/><path fill="#f7ec98" d="M793 736c4.2 4.2 4.3 11.4 4.8 17.1.1 2 .1 2 1.2 3.9q.3 4.5.2 9v7.2c-.2 1.8-.2 1.8-2.2 3.8l-.1-3.7c-.1-15.1-.1-15.1-3.9-29.3z"/><path fill="#f8e568" d="M777 861h2a42 42 0 0 1 5 19c-6.1.8-10-1.9-15-5v-2l2 .8q5.4 2.2 11 4.2l-.8-1.7A39 39 0 0 1 777 861"/><path fill="#f9e872" d="m719 849 8.6 4.4 2.3 1.3c2 1.2 3.4 2.6 5.1 4.3l2.1 1c1.9 1 1.9 1 2.9 4l5.1 2.1c2.9 1.4 4.8 3.6 6.9 5.9-5.7-1.9-5.7-1.9-8-3v-2l-2.2-.2c-4.2-1.2-6.3-4.1-9.2-7.3a16 16 0 0 0-6.1-3.4c-3.9-1.6-5.8-3-7.5-7.1"/><path fill="#faed97" d="m717 913 1.4 1.2 1.9 1.7 1.9 1.6c1.9 1.7 1.9 1.7 4.8 3.5v2h2v2l3 1v2h2v2l3 1v2l2.2.3c3 .8 5.2 2 7.8 3.7l-2 1c-2.2-.8-2.2-.8-4.6-1.9l-2.5-1.2-1.9-.9v-2l-5-1-.3-1.9-.7-2.1-3-1v-2l-3-1-3.7-3.9-1.9-2.2C717 915 717 915 717 913"/><path fill="#f6db25" d="m828 866 2 1-2.2 2.2c-2.8 2.6-2.8 2.6-4.6 5.2-2.5 3-5.3 5.4-8.3 8q-2.5 2.1-4.9 4.6l-3-1 1.8-1.8c5.3-5.2 5.3-5.2 10.1-10.8l2.1-2.4h2v-2c2.4-1.7 2.4-1.7 5-3"/><path fill="#f8e567" d="M975 786c4.2 1.4 6.3 3.1 9.2 6.4l2 2.4c3.2 4 4.4 7.3 5.8 12.2l1.2 2.2c1 2.3.6 3.5-.2 5.8-2.7-4-4.3-8.1-5.9-12.6a33 33 0 0 0-4.1-6.4v-2h-2c-1.6-1.4-1.6-1.4-3-3v-2h-2z"/><path fill="#c4dbb5" d="M1021 849c0 3.6-.9 4.2-3 7l-2 5-2 3h-2l-.9 1.7-5.1 10.3c-.9-3.1-1-4.9 0-8h2l.3-1.7c.8-2.6 2.1-4.2 3.7-6.3l.3-1.9c.9-2.9 2.5-4 4.8-5.8l2.2-1.9z"/><path fill="#fbf6d1" d="m1037 815 1 2c-.9 1.9-.9 1.9-2.3 4.1l-1.4 2.1c-1.3 1.8-1.3 1.8-3.3 2.8l-1.4 2.9c-1.6 3.2-2.3 4-5.6 5.1v2l-1.9.3-2.1.7-1 3-4-1 3-1 .8-1.8c1.2-2.2 1.2-2.2 4.1-4.1 3.4-2.3 4.9-4.6 7.1-8.1l2-1 .9-3.5 1.1-3.5z"/><path fill="#84a07d" d="M1206 804h4c3 5.8 3 5.8 3 8h-2l-2-5h-3l-.9 2.5A71 71 0 0 1 1195 829c-1-2-1-2-.4-3.7l1-2.2 1.1-2.4 1.3-2.7 1.5-3.2c4.2-8.5 4.2-8.5 6.5-10.8"/><path fill="#faf2b4" d="M870.7 882.9h2.4l1.9.1v4h-3l-.1 3c-.6 4.8-3.6 7.6-6.9 11 0-3.8 1.1-6.3 2.5-9.7l1.4-3.6 1.1-2.7-7 1v-2c2.9-1 4.7-1.1 7.7-1.1"/><path fill="#9cbe89" d="m1215 803 2 1v2h2v2h2v4h2l1 5h2l1 7h2v4h2l1 6c-5.1-4.4-7.4-11-10-17l-2.2-3.8c-1.8-3.2-1.8-3.2-1.8-5.2l-3-1z"/><path fill="#f6e04a" d="M1006 746h1v37l3-2h6v-2l7-1a14 14 0 0 1-7.9 4.7l-2.6.7c-2.5.6-2.5.6-6.5.6z"/><path fill="#f6dd34" d="M994 742h1v42c-11.2-1.1-11.2-1.1-16-5 3-1 3-1 4.9-.3l2 1.2a33 33 0 0 0 8.1 3.1z"/><path fill="#b4c2ae" d="M1228 920c0 3 0 3-1.4 4.5l-1.6 1.5-1 3q-3 2-6.2 3.7c-2.1 1.3-2.1 1.3-2.8 4.3-11.1 1.6-11.1 1.6-16-1-.9-2.1-.9-2.1-1-4 3.9 1.9 3.9 1.9 5 3l5.1.6 2.7.2 2.2.2.8-1.9c1.4-2.5 3.1-3.4 5.5-4.8 3.4-2.6 6-6 8.7-9.3"/><path fill="#c1d9b3" d="M1274 865c3 3 3 5.9 3.1 10.1q0 12-1.1 23.9h-2l-1 3c-1-2-1-2-.1-5.8 1.5-6.2 1.3-12.4 1.2-18.8v-3.6z"/><path fill="#cadebf" d="M1176 792c0 3.7-1.5 5.1-3.7 8-1.4 2.1-2.1 4-2.9 6.4l-1.4 3.6-3 1c-.9 1.8-.9 1.8-1.6 4l-1.4 4-2 1 1-7h2l.3-1.9.7-2.1 3-1q1.2-3.4 2-7l2-5h2l1-3z"/><path fill="#e5eee0" d="M1221 773v5l1.8-1.1c2.6-1 3.6-.8 6.2.1l-2.2 1.1a19 19 0 0 0-5.4 5.1l-2.4 2.8h-3l-2 1c.3-6.5 2.5-9.5 7-14"/><path fill="#fbec8c" d="m970 710 5.4 1.3 3 .7c3.1 1.2 3.3 2 4.6 5l3 1 1 5h2c3.3 7 3.3 7 2 11l-.9-1.9a39 39 0 0 0-18.1-19.9l-2-1.2z"/><path fill="#faf0a4" d="M807 843v3l-4 4q-4.1 6.7-7 14l-1.7 3.9-1.3 3.1c-1.7-3.4-.6-6.4 0-10l2-1 .7-2.6c2.2-5.9 6.9-10 11.3-14.4"/><path fill="#fbee95" d="M1017 705v3c-1.6 1.6-1.6 1.6-3.8 3.1l-2.2 1.6c-5.1 3.3-11.1 2.8-17 2.3-2.4-.8-3.9-1.6-6-3v-2l2.5 1c3.7 1.1 7 1.4 10.9 1.6l3.7.3 2.9.1.3-1.9.7-2.1c2.9-1.1 2.9-1.1 6-2z"/><path fill="#8eb879" d="M1231 926c0 3.7-.9 4.3-3.3 7l-1.9 2.1c-4.1 4.3-8 8.4-14.2 9.2a29 29 0 0 1-6.6-.3l-2-2h1.8a29 29 0 0 0 20.6-9.4q2.9-3.2 5.6-6.6"/><path fill="#f9ed96" d="M790 909h2v5l14-2-1 3-2.2.4-2.7.5-2.8.6c-2.3.3-2.3.3-3.3 1.5h-5v-8z"/><path fill="#fbf0a4" d="M978 675h2l-1 3.4q-3.2 12 2.3 23.2 3.1 4.4 6.7 8.4a20 20 0 0 1-7.7-5.9l-1.8-2c-3.3-4.5-2.7-9.8-2.7-15.2v-7c.2-1.9.2-1.9 2.2-4.9"/><path fill="#bed6b1" d="m950 932 6.7 3.4q8.4 4.4 17.2 7.7c2.1.9 2.1.9 5.1 2.9-6.4.4-9.8-.4-15.1-3.9A45 45 0 0 0 951 936c-.9-2.1-.9-2.1-1-4"/><path fill="#accc9b" d="M1265 915c0 3.7-.9 5-3 8-2.1 2-2.1 2-4.4 3.9a71 71 0 0 0-9.6 10.1l-2-1c1.3-4.5 2.9-5.8 7-8 2.7-2.4 3.9-3.6 5-7l1.9-.4c2.3-.4 2.3-.4 3.3-2.6l.8-2z"/><path fill="#f8eb93" d="M861 860c.7 1.6.7 1.6 1 4-1.4 3.3-1.4 3.3-3 6h-2v4c-2.1 2.8-5 4.2-8 6l-4 3a26 26 0 0 1 5.1-7.6c1.6-1.8 2.8-3.2 3.9-5.4h2l.8-2.2q1.8-4 4.2-7.8"/><path fill="#faf5c8" d="M994 811c3.4 3.6 3.4 6.4 3.3 11.2v2l-.1 6.6-.1 4.4-.1 10.8h-7l-1-3h6l.1-10.9V829q0-9-1.1-18"/><path fill="#e8eee5" d="m1188 920 2 1v2h2l3 5 4 5-2 1c-.7 2-.7 2-1 4l-1.8-2.3q-2.5-3-5.2-5.7l4 1c-.8-3-.8-3-2-6l-3-1z"/><path fill="#f9e775" d="M749 910c3.4.5 5.1 1.1 8 3v2l3 1v2l6 1v2h2l1 5-4-2.4-2.2-1.3-1.8-1.3v-2h-2v-2h-3c-2-1.8-2-1.8-4-4l-1.7-1.7z"/><path fill="#f8ec92" d="M869 841c.3 4.9-.6 7.8-3 12a7 7 0 0 1-.4-5.8l2.4-5.2c-4.4.5-6.1 1.7-8.8 5.1l-1.8 2.2-1.4 1.7-4-1 4-4h2l1-3c3.6-2.4 5.7-2.2 10-2"/><path fill="#f4e66e" d="M1041 780c1 1 1 1 1.1 3.6v11l-.1 3.9v9.5h-1v-26l-9 3-4-1c4.6-2.9 7.4-4.7 13-4"/><path fill="#7faa60" d="m1492 1262 6 1v6c-1 1-1 1-3.4 1.2-2.6-.2-2.6-.2-4.6-2.2.6-4.6.6-4.6 2-6"/><path fill="#f5df40" d="m822 911 2 1-2.6 2a58 58 0 0 0-6.9 7.1 36 36 0 0 1-9.5 7.9c0-3 0-3 1.7-5.1q7-7 15.3-12.9"/><path fill="#f9e871" d="m755 905 1.6.9c2.5 1.3 2.5 1.3 5.9 1.5 3.5.6 3.5.6 5.3 2 2.7 2 5.3 2.8 8.5 3.8l3.2 1 2.5.8 1-3v4q-7.5-.7-15-2v-2l-2.1-.5-2.7-.7-2.7-.8c-2.9-1.2-3.9-2.4-5.5-5"/><path fill="#f4f7f3" d="M1189 831c1.8 5.4-1.4 10.6-3.7 15.6l-1.3 2.4h-2c-.3-4.3.7-7.3 2.4-11.2l1.3-3.3c1.3-2.5 1.3-2.5 3.3-3.5"/><path fill="#f7eb8e" d="M1008 808c1.3 3.8.7 6.8.1 10.8q-1.7 12-2.1 24.2l4 1h-5l-.1-11.4v-3.3c0-16.6 0-16.6 3.1-21.3"/><path fill="#f8ee9c" d="M783 718h8l2 18c-3.1-4.2-3.4-5.3-3.7-10.2l-.2-3.3-.1-2.5h-4l-1 8h-1z"/><path fill="#b0caa3" d="M1240 861a28 28 0 0 1 4.3 17v19.2c-.3 2.8-.3 2.8-2.3 4.8v-2.6l.1-9.6.1-4.1v-9.6c-.2-3-.7-4.5-2.2-7.1q-.2-4 0-8"/><path fill="#82ab6d" d="M1174 865c1.3 3.4.8 6.2.3 9.7q-.7 6.2-.9 12.3l-.1 2.6-.3 6.4-2-1-.1-9.4v-7.7c.1-1.9.1-1.9 1.1-2.9l1.1-5.1.5-2.7z"/><path fill="#8fbb77" d="M1274 889c2.2 4.4-.6 10.6-2 15-4.4 9.9-4.4 9.9-9 13v-3h2l1-6h2l.4-1.8q.8-3 2-6 2.1-5.5 3.6-11.2"/><path fill="#f7e572" d="M779 743c.9 3.3 1 5.8.6 9.3l-.3 2.7-.3 2h-2v23h-1l-.2-12.9-.1-3.6c0-7.4.7-13.6 3.3-20.5"/><path fill="#abca99" d="M930 908h2v3h2v3h2l1.1 2.6c2.1 3.8 4.5 6.3 7.6 9.3l1.5 1.5 3.8 3.6c-3.7 0-4.7-1.3-7.3-3.8l-1.6-1.6-1.6-1.7c-9.5-9.8-9.5-9.8-9.5-15.9"/><path fill="#f5e03c" d="M785 720h4l.4 2.5.5 3.3.5 3.2a22 22 0 0 0 2.6 7c-.4 2.3-.4 2.3-1 4a39 39 0 0 1-4-15h-2l-2 2z"/><path fill="#f9e45e" d="m732 900 5 2 3.6 1.4c2.9 1.4 4.4 2.2 6.4 4.6l2 2q-8.9-.5-16-6c-.8-2.2-.8-2.2-1-4"/><path fill="#f9e76b" d="M752 872c4.8.4 6.9 2.4 10 6v2h2v2l3 1c2.1 2.9 3 4.4 3 8l-5-5v-2h-2v-2l-3-1-1.4-2.4c-1.8-3-3.6-4-6.6-5.6z"/><path fill="#bbd29c" d="M955 820c4.5 3 7.6 5.1 10 10l1.2 2.3.8 1.7h2l1 3 5 4-1 2-3.9-3.3-2.3-1.9C966 836 966 836 965 833l-5-5c-5-5.5-5-5.5-5-8"/><path fill="#f6e35f" d="M1000.6 646.1c2.5 1 3.7 1.9 5.4 3.9l-1 2-6-3-.6 1.9c-1.7 2.7-3.6 3.7-6.4 5.1 2.8-10 2.8-10 8.6-9.9"/><path fill="#faed90" d="M1038 765h2c-.1 2.3-.1 2.3-1 5-2.9 2.1-2.9 2.1-6 4l-2 3-4.6 1.7-2.5.7-1.9.6c1.4-2.8 3.3-3.5 6-5 3.4-2.2 3.4-2.2 5-6l4-2z"/><path fill="#f4df3a" d="M1040 709v7h-1v-5l-1.7.6-16.3 5.4c4-6.3 11.7-8.8 19-8"/><path fill="#c0d8b3" d="M1159 820c1.1 3.8 1.1 3.8 0 6h-2v6l-2 1-2 5h-2l1-7h2l.8-3.8c.8-3.2 1.5-5.2 4.2-7.2"/><path fill="#fbe970" d="M968 773c6.7 1.1 10.3 3 15 8l2 2a30 30 0 0 1-12-4v-2h-2v-2l-3-1z"/><path fill="#b5d0a5" d="M1066 916c0 3.7-.9 4.5-3.4 7.2l-1.9 2.2c-1.7 1.6-1.7 1.6-3.7 1.6l-.7 1.9c-1.7 2.7-3.3 3.2-6.3 4.1.3-3.1 1-4 3.3-6.1 2.7-1.9 2.7-1.9 4.7-2.8 2.3-1.3 3.6-2.7 5.3-4.7l1.5-1.9z"/><path fill="#c6dcba" d="M1148 915q4.4 4 7.8 8.9c2.7 3.8 5.8 6.3 9.6 8.9 1.6 1.2 1.6 1.2 2.6 3.2a33 33 0 0 1-17-15l-3-2z"/><path fill="#b7d2a8" d="M1075 898h1a19 19 0 0 1-2 11l-4 4-1 3h-2c1.1-5.6 2.2-8.6 6-13 1.2-2.7 1.2-2.7 2-5"/><path fill="#f6e049" d="M859 890c-1.5 3.8-3.4 5.2-7 7h-3v2l-10 3c2-2.2 3.5-3.8 6.4-4.9q3.9-1.6 7.3-4.2c4.1-2.9 4.1-2.9 6.3-2.9"/><path fill="#f1dc39" d="M864 849c.7 1.6.7 1.6 1 4q-1.4 3.7-3.3 7.2l-1 1.9c-2.4 4.8-2.4 4.8-4.7 5.9q.9-5.4 3.1-10.3l1.1-2.7.8-2h2z"/><path fill="#bed7b0" d="M1240 795h2l.9 1.9c.9 2.3.9 2.3 3.1 3.1q1.3 3 2.2 6.2c.7 2 .7 2 2.8 2.8l1 6-3-3v-2l-3-1c-1.1-1.9-1.1-1.9-2.1-4.2l-1-2.5-.9-2.3-1.2-3.1z"/><path fill="#a3c692" d="M1214 782c0 4.4-2 6-5 9h-4c-1.7-2-1.7-2-3-4l1-2 3 1v2l2.3-2.4c2.7-2.6 2.7-2.6 5.7-3.6"/><path fill="#f4de45" d="m863 896 2 1-2.2 5.8-2.2 6a17 17 0 0 1-6.6 7.2c.6-5.6.6-5.6 2.4-7.3 2.1-2.2 3.1-4.6 4.3-7.4l1.3-3z"/><path fill="#a7c588" d="m975 843 2 1 1 3 6 4v2h2l2 7-3.4-2.8-2-1.6C981 854 981 854 980 851l-2.6-1.9-2.4-2.1z"/><path fill="#faed93" d="M707 893c2.6 2.6 2.5 4.5 3 8l3 1c1.9 3.2 3 5.2 3 9-5.5-3.3-7.3-8.1-9-14z"/><path fill="#fbf6cb" d="M864 839h8c.3 4.9-.6 7.8-3 12h-2l2-10h-5z"/><path fill="#faef9b" d="M1024 711c2.2.3 2.2.3 4 1l-2.7 1.7A29 29 0 0 0 1014 727h-2c0-3.3.4-5.4 2.7-7.9l4.3-3.5c2-1.5 2-1.5 3.6-3.3z"/><path fill="#f6e35c" d="M796 939c1.1 3.8 1.1 3.8 0 6h-2v2c7-.7 7-.7 14-2l-1 2-5.3 1.1-2.9.5c-2.8.4-2.8.4-6.8.4.6-4 1.8-6.7 4-10"/><path fill="#f6dd23" d="m1030.4 785.3 1.6.8-2.5 1.5c-4.4 2.8-7.9 6.7-11.5 10.5 0-4.2 1.5-5.8 4-9 5.1-4.2 5.1-4.2 8.4-3.8"/><path fill="#f6e565" d="M1011 727h1a23 23 0 0 1-4 15h-1c-.3-5.7 0-9 3-14z"/><path fill="#f9ec97" d="m802 890 1 2-3.7 7.5-1.1 2.1c-1.8 3.3-3 5.3-6.2 7.4l.8-1.5q1.4-3.1 2.6-6.4c3.6-9.6 3.6-9.6 6.6-11.1"/><path fill="#a7c995" d="M1150 838h2l-.9 4.8-.6 2.7c-.5 2.5-.5 2.5-1.5 5.5h-3l-1 6c-1.1-2.7-1.1-3.8 0-6.7l1.4-2.8c1.5-3.2 2.9-6 3.6-9.5"/><path fill="#f7e465" d="M775 804h2c5.7 15.7 5.7 15.7 5 23h-1l-.4-1.9q-1.4-7.6-3.6-15.1h-2z"/><path fill="#a2c78f" d="M1201 757c0 3.1-.5 4.4-1.8 7.1l-1 2.2c-1.2 1.7-1.2 1.7-4.2 2.7l2 8c-3-2-3-2-3.6-5 .2-5.7 4.7-11.1 8.6-15"/><path fill="#f9ed95" d="M829 938v2q-10.7 4.5-22 7c2.5-3.1 5.1-3.9 8.9-5.1q4.4-1.3 8.9-3c2.2-.9 2.2-.9 4.2-.9"/><path fill="#f4f7f2" d="m1233 917 2 2-5.2 6.9c-1.8 2.1-1.8 2.1-4.8 3.1l2-4 1.4-3.1c1.6-2.9 1.6-2.9 4.6-4.9"/><path fill="#f8e97b" d="m828 866 2 1-5 5-2.1 2.4-1.9 1.6c-2.2-.2-2.2-.2-4-1l4-4h2v-2c2.4-1.7 2.4-1.7 5-3"/><path fill="#f8e565" d="m710 855 2 1v2h2v3h2l1 6h2l1 6a21 21 0 0 1-5.2-7.1l-1-2.1c-.8-1.8-.8-1.8-.8-3.8l-3-1z"/><path fill="#f6e457" d="M707 840c2.4.2 3.7.7 5.4 2.4l3.6 4.6-6-1-2 3c-1.5-3-1.1-5.7-1-9"/><path fill="#f9eea1" d="m844 805 2 1-1.3 1.2c-1.8 1.7-1.8 1.7-2.9 4.1-2.6 3.8-6 6.1-9.8 8.7l-1-2 2.6-2q5.7-5 10.4-11"/><path fill="#f7e97f" d="M793 736c4.3 4.3 4.1 10.7 4.1 16.5l-.1 5.5h-1l-.4-2.6-.5-3.3-.6-3.3c-.4-2.7-.4-2.7-1.5-4.8z"/><path fill="#b7d3a0" d="M1034 834c0 4.3-2.7 6.2-5.5 9.2l-1.6 1.7-3.9 4.1c0-4 1.6-5.8 4-9l2-1 .9-2c1.1-2 1.1-2 4.1-3"/><path fill="#f9ee99" d="M853 916c0 3 0 3-2 6h-2l-.7 1.8c-1.6 2.8-3.7 4.3-6.3 6.2l-2-1 2.8-2.2c2.8-2.3 4.4-4.6 6.2-7.8 2.2-1.8 2.2-1.8 4-3"/><path fill="#fbec8b" d="m718 892 8 2v2l5 1 1 3-2.1-.9c-2.9-1.2-2.9-1.2-6-1.5-3.1-.6-4.1-1.1-5.9-3.6z"/><path fill="#f9e253" d="M755 864q7.8 2 14 7v2c-6.6-1.6-10.1-3.4-14-9"/><path fill="#fbefa5" d="M750 795h1l.3 2.4c.9 5.8 1.8 10.4 4.7 15.6l-1 2c-3.8-4.9-5.3-7.9-5.1-14.2v-3.3z"/><path fill="#f9e463" d="M792 794h2l-1 6-2 1-3 5-3-1c-.7-2.1-.7-2.1-1-4h2l1 2c2.3-2.9 3.8-5.5 5-9"/><path fill="#dbe5d8" d="m1233 911 1 4h2l1-3 1 2c-2.5 6.7-2.5 6.7-5 8l1-4-5 2 .9-1.7z"/><path fill="#f8e152" d="M742 894c5 1.5 8.2 4.6 12 8-1.8.7-1.8.7-4 1-1.9-1.1-1.9-1.1-3.7-2.7l-1.8-1.7C743 897 743 897 742 894"/><path fill="#f2f5f1" d="M1236 857h2c2.4 3.4 2 6.1 1.4 10l-1.4 6a55 55 0 0 1-2-16"/><path fill="#f7e465" d="M987 660c1.2 2.9 1 4-.1 7a23 23 0 0 1-6.9 7c1.2-4 2.4-6.8 5-10z"/><path fill="#faf0ac" d="M754 942h4v2l1.8.1c4.4.5 8.2.9 12.2 2.9-4.8 1.6-9.2.5-14-1-2.6-2.1-2.6-2.1-4-4"/><path fill="#a5c496" d="M1241 902c1.4 3.8.7 7.1 0 11h-2l-.4 2.4c-.6 2.6-.6 2.6-2.6 4.6a46 46 0 0 1 3-11z"/><path fill="#dbe9d3" d="M1081 883h1l-1 11h-2l.2 2.3c-.2 2.7-.2 2.7-1.7 4.5l-1.5 1.2a71 71 0 0 1 4.2-16.4z"/><path fill="#f9e354" d="M736 862c13.9 5.8 13.9 5.8 16 10-5.7-1.9-5.7-1.9-8-3v-2l-2.3-.4c-2.7-.6-2.7-.6-5.7-2.6z"/><path fill="#f2db3a" d="M846 816h2l-1 10h-2l-.4 2.8c-.5 2.8-1.2 4.7-2.6 7.2.7-6.9 2.2-13.3 4-20"/><path fill="#d9e1d6" d="m1193 818 2 2 3-2-1.3 4.3-.8 2.4a12 12 0 0 1-3.9 5.3l.1-2.9c.1-3 .1-3-1.1-5.1.9-2.1.9-2.1 2-4"/><path fill="#f8e35a" d="M810 906h5c-3.9 4.7-8 6.9-14 8-2.3-.4-2.3-.4-4-1l2.6-.8 3.3-1 3.4-1 2.7-1.2z"/><path fill="#90ba79" d="M1165 810h1c.6 5.7-1.1 8.3-4 13l-1 3h-2a86 86 0 0 1 6-16"/><path fill="#c8ddb9" d="m1066 793 2 1c-1.3 5.6-5.5 7.9-10 11q2.1-4.4 5.1-8.2l1.7-2.2z"/><path fill="#fcf7d0" d="M704 882c4.4.2 6.4.3 9.4 3.6l1.6 2.4-1.6-.9a65 65 0 0 0-8.4-3.1v4h-2v-5z"/><path fill="#d5e6cc" d="M1269 849c3 1.5 3.3 3.9 4.4 6.9q1 3.5.6 7.1h2l-1 4c-3.3-5.6-4.6-11.7-6-18"/><path fill="#f7f9f6" d="M1183 850v7h-2l-1 5h-1c-.4-7.4-.4-7.4 1.4-10.5 1.6-1.5 1.6-1.5 2.6-1.5"/><path fill="#fbf2b8" d="M816 818c.7 1.7.7 1.7 1 4-1.2 2.1-1.2 2.1-2.9 4.3l-1.8 2.1-1.3 1.6-2-1c1.5-4.6 3.9-7.4 7-11"/><path fill="#f3e369" d="m1037 815 1 2c-2.2 5-5 8.7-10 11 1.8-3.9 1.8-3.9 4-5l.9-3.5 1.1-3.5z"/><path fill="#faf0b2" d="M823 797h1c.5 6.9-1.1 11.7-4 18-1.2-4-.5-6 1-10z"/><path fill="#fbee9d" d="M984 718h2l1 5h2c3.3 7 3.3 7 2 11-5.4-10.4-5.4-10.4-7-16"/><path fill="#d5e5cd" d="m1168 936 5 2v2l2.8.8c3 1.1 4.3 1.8 6.2 4.2l-6-1v-2l-5-1v-2h-2z"/><path fill="#f5f8f4" d="M1197 934h2v2l3.3.9c2.8.8 5.1 1.7 7.7 3.1l-5.4-.4-3-.3c-2.6-.3-2.6-.3-4.6-1.3z"/><path fill="#f4dd40" d="M803 929h1c.4 4.5.4 4.5-1.4 6.8-1.6 1.2-1.6 1.2-3.6 1.2v2h-2c1.4-4 3.2-6.8 6-10"/><path fill="#f8e259" d="M733 836h2l2 7h2c1.3 2.9 2 4.8 2 8a32 32 0 0 1-8-15"/><path fill="#f8e149" d="m832 896-10 7-2-1 1-3 5-1v-2c3.8-1.1 3.8-1.1 6 0"/><path fill="#fcf5c4" d="m770 875 5.9 3.1q3.8 1.5 8.1 1.9l1-4v5c-5.1.2-9.3.3-14-2-.9-2.1-.9-2.1-1-4"/><path fill="#c6dcba" d="M1011 862c.8 1.7.8 1.7 1 4l-4 5c-1.2 2.7-1.2 2.7-2 5a11 11 0 0 1 0-8h2l.4-1.9c.6-2.1.6-2.1 2.6-4.1"/><path fill="#f8eea5" d="M845 826h2l-1 10h-2v2h-2z"/><path fill="#f6e25e" d="M802 797c1 2 1 2 .3 4.8q-1.7 4.3-4.3 8.2h-1c-.4-5.6-.4-5.6 1.4-7.6l1.6-1.4c1.2-2.1 1.2-2.1 2-4"/><path fill="#accb91" d="M1061 802c0 4-1.3 4.8-4 7.7l-2.2 2.4-1.8 1.9c0-3.7.9-5 3-8 2.7-2.3 2.7-2.3 5-4"/><path fill="#f4de3f" d="M1022 693h1c-.5 4.7-1.1 8.2-4 12l-3 1v-3h2l1-4h2l-.1-2.4c.1-2.6.1-2.6 1.1-3.6"/><path fill="#8bb774" d="m1046 933 2 1c-4.7 4.6-8.5 6-15 7l2-3c2.6-.2 2.6-.2 5 0v-2z"/><path fill="#f6f8f6" d="M1237 905h1c.3 6.6.3 6.6-2 10h-2c-.2-3.4-.4-5.4 1.4-8.4z"/><path fill="#fbec90" d="M726 880c4.5 3.7 8.4 7.4 12 12-2.3-.2-2.3-.2-5-1-1.6-2.3-1.6-2.3-3-5l-2.2-2.2-1.8-1.8z"/><path fill="#728e69" d="M1230 850c2.2 2.2 2.7 3.5 3.6 6.4l.8 2.3c.6 2.3.6 2.3.6 6.3h-2l-1.5-5.2-.8-3c-.7-2.8-.7-2.8-.7-6.8"/><path fill="#f6e044" d="M756 813c3 1 3 1 4.7 3.9 1.3 3.1 1.3 3.1 1.3 6.1h2l-1 3-2.9-4.2-1.7-2.4a18 18 0 0 1-2.4-6.4"/><path fill="#f6df34" d="M778 906c3.9 3.3 3.9 3.3 4.3 6.8l-.3 2.2-6-1 3-1z"/><path fill="#fcf1af" d="M811 872v2l-5 1v2c-3.5 1.7-5.3 2.1-9 1l5.9-3 3.3-1.7c2.8-1.3 2.8-1.3 4.8-1.3"/><path fill="#b2d0a1" d="M1181 781h3c-1.2 4-2.6 7.5-5 11h-2l.9-2.1z"/><path fill="#f6dd2e" d="M1023 778c-2.7 3.5-5.8 4.1-10 5-2.4-.4-2.4-.4-4-1 1-1 1-1 4.1-1.1l2.9.1v-2c2.5-1.2 4.3-1.1 7-1"/><path fill="#b3c2ae" d="m1188 920 2 1v2h2l3 5 3 4c-2.9-1.3-5-2.6-7-5v-2l-3-1z"/><path fill="#fbf5c6" d="M790 909h1l.3 2.9c.4 3.4.4 3.4 3.7 5.1-1 1-1 1-3.6 1.1l-2.4-.1v-8z"/><path fill="#fbf4be" d="m843 899-5.4 3.6-3 2-2.6 1.4-2-1c1.8-2 1.8-2 4-4h3v-2c3-1 3-1 6 0"/><path fill="#f9e982" d="M791 871h1v8h5l-1 2h-6z"/><path fill="#fbef9d" d="m821 863 1 2-1.9.3c-2.3.5-2.3.5-3 2.6-1.1 2.1-1.1 2.1-3.7 3.4l-2.4.7 2-4h2v-2z"/><path fill="#e7efe4" d="M1211 795h1c2 6.6 2 6.6 2 10l-8-2v-2h4z"/><path fill="#f6e775" d="m860 844 2 1-2.7 3.1-1.6 1.7c-1.7 1.2-1.7 1.2-3.9.9l-1.8-.7c2.5-2.6 4.6-4.7 8-6"/><path fill="#f9f4c5" d="M1040 808h2c.3 4.6-.2 7.3-3 11h-2z"/><path fill="#f6e45c" d="M756 775c2.9 2.7 5.2 5.4 7 9l-1 2a44 44 0 0 1-6-7z"/><path fill="#fcf4c6" d="M779 739c1.3 3.5.7 5.7-.4 9.3l-.9 2.7-.7 2h-1v-10h2z"/><path fill="#8fb47a" d="m1179 848 1 2-2 5-2 8c-1.1-4-.9-6.9 0-11 1.6-2.4 1.6-2.4 3-4"/><path fill="#f7df48" d="M783 728h1c.6 8 .6 8-2 12.1l-2 1.9a83 83 0 0 1 3-14"/><path fill="#f6e25a" d="m843 883 2 1-3.3 3.9-1.9 2.3C838 892 838 892 835 893c.6-3.6 1.7-5 4.6-7.2l1.9-1.6z"/><path fill="#f6e251" d="M834 905v2h-2v2l-8 2c2.4-3.6 5.5-6 10-6"/><path fill="#fcf3b3" d="M752 872c4.8.4 6.8 2.5 10 6l-1 2-1.7-1.8a37 37 0 0 0-7.3-5.2z"/><path fill="#9fc389" d="M1016 856c.7 1.8.7 1.8 1 4-1.3 2.3-1.3 2.3-3 4h-2c.5-3.7 1.1-5.6 4-8"/><path fill="#8cba74" d="M1268 852c2.8 2.3 3.5 4.1 4.2 7.7l.5 2.4.3 1.9c-3.3-1.6-3.8-4.7-5-8z"/><path fill="#b0cc90" d="M966 834h3l1 3 5 4-1 2-4-3.4-2.2-1.9-1.8-1.7z"/><path fill="#fae86d" d="M1017 705v3c-2.2 2.3-2.2 2.3-5 4-2.3-.2-2.3-.2-4-1 1-2 1-2 3.9-3l3.1-1z"/><path fill="#faf09b" d="m836 931 2 1-2 3h-2v2l-5 1 1-2h2l1-3z"/><path fill="#fcf3b5" d="m762 918 4 1v2h2l1 5c-3.2-2.4-5.5-4.2-7-8"/><path fill="#fcf2a8" d="M729 855a63 63 0 0 1 10 6v2c-5-1.4-6.9-4-10-8"/><path fill="#f6f9f6" d="M1196 813h2c.3 2.3.3 2.3 0 5-2 1.8-2 1.8-4 3v-5h2z"/><path fill="#f9ec88" d="M1041 780v1l-8 1-1 3-4-1c4.6-3 7.4-4.5 13-4"/><path fill="#ccdebd" d="M982 851h2v2h2l2 7c-5.6-5.1-5.6-5.1-6-9"/><path fill="#f8eb8a" d="m859 908 1 2-5 6c-1-2-1-2-.8-4 .8-2 .8-2 2.9-3.2z"/><path fill="#ece15d" d="m982 837 7 2 1 4a21 21 0 0 1-8-6"/><path fill="#f5ea85" d="m1022 833 1 2-2 1-2 4-4-1 3-1 2-4z"/><path fill="#edf1eb" d="m1193 823-1 10h-1l-1-9c2-1 2-1 3-1"/><path fill="#f7faf7" d="M1217 814h3v3h2l1 3-2 1-2-1v-4h-2z"/><path fill="#c9debd" d="M1196 777a59 59 0 0 1 5 5v3c-2.5-1.7-2.5-1.7-5-4z"/><path fill="#f6e02c" d="M785 720h3v5h-2l-2 2z"/><path fill="#f5e563" d="m1013 662 2 1v2h2l2 6-3-2v-2l-3-1z"/><path fill="#fcf3ba" d="M738 892c3.6 1.9 5.5 3.2 7 7h-3c-4-4.3-4-4.3-4-7"/><path fill="#f6e457" d="M859 890c-.6 1.9-.6 1.9-2 4-3.1.8-3.1.8-6 1 4.8-5 4.8-5 8-5"/><path fill="#f8e02e" d="M709 842c2.9.4 3.8.8 5.8 3.1l1.2 1.9-7-1z"/><path fill="#749269" d="M1215 816c3.1 2.5 3.9 5.2 5 9h-2c-3-6.7-3-6.7-3-9"/></svg>