<svg xmlns="http://www.w3.org/2000/svg" viewBox="0 0 32 32">
  <rect width="32" height="32" rx="7" fill="#17311B"/>
  <path d="M16 27.5 C10.8 23.4 9.8 17.2 12 12.8 C15.2 16 16.2 21.3 16 27.5 Z" fill="#5CAF46"/>
  <path d="M16 27.5 C21.2 23.4 22.2 17.2 20 12.8 C16.8 16 15.8 21.3 16 27.5 Z" fill="#3E8C30"/>
  <g fill="#EFBF2E">
    <path d="M16 4.6 C17.5 6.3 17.5 8.9 16 10.6 C14.5 8.9 14.5 6.3 16 4.6 Z"/>
    <path d="M15.4 8.8 C13.4 10 12.9 12 13.8 13.6 C15.6 12.5 16 10.7 15.4 8.8 Z"/>
    <path d="M16.6 8.8 C18.6 10 19.1 12 18.2 13.6 C16.4 12.5 16 10.7 16.6 8.8 Z"/>
    <path d="M15.4 12.8 C13.4 14 12.9 16 13.8 17.6 C15.6 16.5 16 14.7 15.4 12.8 Z"/>
    <path d="M16.6 12.8 C18.6 14 19.1 16 18.2 17.6 C16.4 16.5 16 14.7 16.6 12.8 Z"/>
  </g>
</svg>
